<svg id="Livello_1" data-name="Livello 1" xmlns="http://www.w3.org/2000/svg" viewBox="0 0 567.5 567.5"><defs><style>.cls-1{fill:#fff;}</style></defs><path class="cls-1" d="M323.29,16.79c-8.9-.84-17.92-1.29-27-1.29s-18.14.45-27,1.29C125.19,30.41,12.5,151.66,12.5,299.25c0,138.64,99.43,254,230.87,278.81,6,1.12,12,2.07,18.06,2.81V477.73a180.44,180.44,0,0,1-18.06-4.49A182.41,182.41,0,0,1,118.29,336.41v-.05H99.87v.05a200.08,200.08,0,0,0,116.4,146A197.33,197.33,0,0,0,243.37,492v67.61a263.23,263.23,0,0,1-27.09-7.07c-107.53-34-185.72-134.69-185.72-253.33,0-132.9,98.09-243.3,225.68-262.65a265.16,265.16,0,0,1,31-2.87h0V58.25h0V76.32h0V99.56h0A200,200,0,0,0,101,256.69h18.57c19.21-79.8,91.12-139.3,176.73-139.3,100.28,0,181.86,81.58,181.86,181.86,0,72.06-42.16,134.4-103.08,163.8V483A199.89,199.89,0,0,0,496.16,299.25c0-96.72-68.69-177.34-160-195.86a200.36,200.36,0,0,0-30.93-3.83V33.73a267,267,0,0,1,30.93,2.86C463.82,55.93,561.94,166.33,561.94,299.25c0,143.48-114.32,260.74-256.66,265.52V480.88l0-21.88V438.65c-2.88.18-5.79.28-8.72.28a138.37,138.37,0,1,1,29.38-3.14v16.68h0v86.16q9.15-1.12,18.06-2.91c110.35-22.15,193.47-119.59,193.47-236.46,0-119.59-87-218.82-201.23-237.86V79.76c104,18.89,183.17,110.1,183.17,219.49C519.38,394.55,459.29,476,375,508a220.53,220.53,0,0,1-30.95,9.25l-.11,0V447.85l.11,0A156.06,156.06,0,1,0,146.14,256.69a156.38,156.38,0,0,0-5.48,30.95H73.42A223.07,223.07,0,0,1,256.24,79.75V61.4C142.08,80.46,55.06,179.68,55.06,299.25c0,105.17,67.33,194.56,161.22,227.56V507.53c-72.47-27.92-126.8-92.62-140-171.12a223.4,223.4,0,0,1-3-30.71h67.13A156,156,0,0,0,287.22,455V582.84c3,.1,6,.16,9,.16s6-.06,9-.16C457.81,578.07,580,452.94,580,299.25,580,151.66,467.31,30.41,323.29,16.79Z" transform="translate(-12.5 -15.5)"/></svg>