<?xml version="1.0" encoding="utf-8"?>
<!-- Generator: Adobe Illustrator 26.0.3, SVG Export Plug-In . SVG Version: 6.00 Build 0)  -->
<svg version="1.1" id="Livello_1" xmlns="http://www.w3.org/2000/svg" xmlns:xlink="http://www.w3.org/1999/xlink" x="0px" y="0px"
	 viewBox="0 0 623.62 199.3" style="enable-background:new 0 0 623.62 199.3;" xml:space="preserve">
<path d="M52.37,98.33c0-0.95,0.24-1.39,0.71-1.32c-1.35-0.27-3.42-1.72-6.19-4.36c-2.77-2.64-4.4-4.57-4.87-5.78
	c-2.1-2.5-4.13-4.97-6.09-7.41l4.97,0.1l0.71-0.3c0.2-0.34,0.54-0.51,1.01-0.51c0.54,0,1.3,0.15,2.28,0.46
	c0.98,0.3,1.5,0.46,1.57,0.46c0.47,0,1.22,0.27,2.23,0.81c0.61,0,3.92-0.44,9.94-1.32l-0.2-12.38L55,66.16
	c-0.14,0.47-0.52,0.76-1.17,0.86c-0.64,0.1-1.23,0.15-1.78,0.15l-1.93,0.1l-1.12-0.61l-1.22-0.2l-0.1-0.1l-0.41-0.1
	c-0.27,0.07-1.15,0.19-2.64,0.36c-1.49,0.17-2.33,0.22-2.54,0.15c-1.49,0.41-3.15,0.51-4.97,0.3c-2.5-0.2-4.23-0.3-5.17-0.3
	c1.83-1.76,3.31-3.11,4.46-4.06c0.07-0.13,0.07-0.34,0-0.61c0.54-0.95,0.85-1.49,0.91-1.62l0.51-0.1c1.08-0.88,1.86-1.45,2.33-1.72
	c1.56-2.03,4.01-4.62,7.36-7.76c3.35-3.15,5.77-5.6,7.25-7.36c0.2-0.74,0.46-1.54,0.76-2.38c0.3-0.84,1.03-1.5,2.18-1.98
	c1.22-1.08,2.16-1.89,2.84-2.44l-1.52-1.62l0.2-0.3l-0.91-0.61l-6.8-7.61c-2.57,2.84-3.86,4.57-3.86,5.17v1.52
	C47.02,33.76,46.24,34,45.36,34c-0.2,0.14-0.3,0.27-0.3,0.41c0,0.14,0.12,0.36,0.36,0.66c0.24,0.3,0.36,0.56,0.36,0.76
	c0,0.14-0.07,0.27-0.2,0.41h-0.2c-0.14,0.14-0.27,0.24-0.41,0.3c-0.41,0-0.98-0.03-1.73-0.1c-0.75,0-1.08,0-1.01,0
	c-0.2,0-0.37,0.1-0.51,0.3l-0.41-0.1c-0.47,0.54-0.83,1.03-1.07,1.47c-0.24,0.44-0.52,1.03-0.86,1.78c-1.22,1.56-2.4,3.11-3.55,4.67
	c-1.49,1.76-2.98,3.04-4.46,3.86c-2.77,3.38-5.62,6.66-8.52,9.84c-0.14,0.54-0.27,0.91-0.41,1.12l-0.1,0.1
	c-0.81,1.96-1.93,3.04-3.35,3.25c-3.86,4.6-6.83,8.12-8.93,10.55l0.2,0.2l-0.1,0.2c0.54,0.54,0.95,0.88,1.22,1.01
	c0.27,0.14,0.47,0.22,0.61,0.25c0.13,0.03,0.22,0.25,0.25,0.66c0.03,0.41,0.32,0.78,0.86,1.12c1.83,1.29,2.84,2.1,3.04,2.44
	c-0.14-0.61-0.24-1.08-0.3-1.42c0.13,0.07,0.68,0.12,1.62,0.15c0.95,0.03,1.45,0.25,1.52,0.66l-0.81,1.93v0.91
	c1.28,1.35,2.27,2.37,2.94,3.04c0.34,0,0.68,0.03,1.01,0.1c1.62,1.62,2.81,3.01,3.55,4.16c0.88,0.74,1.52,1.18,1.93,1.32l0.61,0.91
	c0.34,0.2,0.64,0.44,0.91,0.71v-0.3l0.41,0.2l0.61,0.2l1.62,3.55c1.89,2.1,2.94,3.28,3.15,3.55l2.64,3.15
	c3.86,4.19,6.97,7.51,9.33,9.94v-0.41c1.42,1.76,2.23,2.74,2.44,2.94c1.08,0.81,1.76,1.76,2.03,2.84c-0.2-0.2-0.37-0.34-0.51-0.41
	h-0.1c0.13,0.27,1.05,1.35,2.74,3.25l9.64-12.18c-1.22-1.22-2.23-2.3-3.04-3.25C54.94,103.44,52.37,101.3,52.37,98.33z"/>
<polygon points="10.05,73.27 9.85,73.06 9.95,74.08 10.16,73.67 9.95,73.37 "/>
<polygon points="39.28,39.98 39.38,39.88 39.28,39.88 "/>
<path d="M87.37,79.86l-0.03,0.36c0.04,0.15,0.09,0.33,0.14,0.55C87.44,80.5,87.4,80.19,87.37,79.86z"/>
<path d="M87.48,80.78c0.05,0.34,0.12,0.65,0.19,0.91C87.6,81.33,87.54,81.04,87.48,80.78z"/>
<path d="M125.12,108.17c0-3.52-0.24-5.99-0.71-7.41c-0.61-1.69-2.03-3.62-4.26-5.78l5.28,3.96c-0.27-0.94-0.41-1.65-0.41-2.12
	c0-0.4,0.12-0.74,0.36-1.01c0.24-0.27,0.36-0.64,0.36-1.11c0-0.94-0.1-2.25-0.3-3.93c-0.33-2.15-0.53-3.43-0.59-3.83
	c-0.07-0.74-0.55-1.21-1.43-1.41s-1.33-0.37-1.33-0.5l0.1-0.3l3.15,0.2l0.41-1.62c0-1.83-0.03-5.38-0.1-10.65
	c-0.14-4.46-0.17-8.05-0.1-10.76l-2.03,2.74c1.15-3.79,1.72-6.66,1.72-8.62l-2.03-1.42l2.11-0.41l0.11-0.1l0.32-3.35
	c0-2.77-0.44-4.77-1.32-5.99c0.81-1.56,1.28-3.52,1.42-5.89c0.07-2.1,0.13-4.16,0.2-6.19l-2.23-1.62l-0.91,4.06l-1.83-4.16
	c-4.26-0.27-6.9-0.41-7.91-0.41l-1.52,3.65l2.74,3.04c-0.41,0.54-0.71,1.18-0.91,1.93l-0.1,0.2c-0.14,0-0.22,0.17-0.25,0.51
	c-0.03,0.34-0.09,0.54-0.15,0.61v1.32l-0.61,0.3c0.2,6.63,0.3,11.6,0.3,14.92c0.54,0.41,0.95,0.88,1.22,1.42l2.44-1.62l-1.22,2.74
	l0.2,1.12l-2.33,0.81c0,0.2,0.08,0.71,0.25,1.52c0.17,0.81,0.25,1.42,0.25,1.83c0,0.61-0.17,1.05-0.51,1.32l1.62,2.03
	c-0.54,1.15-0.81,2.27-0.81,3.35c0,0.41,0.07,1.12,0.2,2.13c0.13,1.01,0.2,1.83,0.2,2.44c0,0.75-0.27,1.67-0.81,2.79
	c-0.54,1.12-0.81,2.05-0.81,2.79c0,2.3,0.07,5.68,0.2,10.15c0.13,4.46,0.2,7.78,0.2,9.94l-2.03,2.03l-3.86-0.3
	c-0.07,0.68-0.71,1.01-1.93,1.01h-0.71l-2.94,1.22l-0.81-1.93l-0.91,1.93h-0.3l-1.93-1.93l-1.62,0.81
	c-0.54-0.95-1.18-1.42-1.93-1.42c-2.1,0-3.75,0.2-4.97,0.61L86.46,102c0.47-5.35,0.97-9.59,1.52-12.74l-3.15-2.81h2.03l0.48-6.23
	c-0.07-0.24-0.13-0.41-0.18-0.46v0.1c-0.14-1.35-0.05-3.48,0.27-6.39c0.36-3.31,0.54-5.31,0.54-5.99c0-1.83-0.19-4.68-0.56-8.57
	c-0.37-3.89-0.56-6.68-0.56-8.37c0-0.47,0.25-1.66,0.76-3.55c0.51-1.89,0.76-3.25,0.76-4.06c-0.81-1.35-1.22-2.81-1.22-4.36
	c0-1.01,0.51-2.23,1.52-3.65l-1.62-3.65c-2.44-0.27-4.7,0.37-6.8,1.93l-0.91-1.93l-3.35,0.3l-1.22,4.36c0,1.08,0.07,2.69,0.22,4.82
	c0.14,2.13,0.22,3.7,0.22,4.72c0.5,0.75,1.47,1.35,2.92,1.83l-2.84,1.32c0.07,0.34,0.07,0.78,0,1.32c0,0.68,0,1.12,0,1.32
	c0,2.17,0.15,5.38,0.46,9.64c0.3,4.26,0.46,7.41,0.46,9.44c0,1.22-0.15,2.98-0.46,5.28c-0.3,2.3-0.46,4.06-0.46,5.28l1.22,0.71
	l1.62,2.84c0,1.08-0.34,2.01-1.01,2.79c-0.68,0.78-1.35,1.54-2.03,2.28c-0.14,4.53-0.37,9.5-0.71,14.92l0.41,0.41
	c0,0.2,0,0.44,0,0.71c0,1.29,0.47,2.54,1.42,3.75l-2.55,3.15l-0.39,2.84c4.53,0,5.85-0.1,3.96-0.3c2.03,0.07,3.04,0.6,3.04,1.56
	l-0.2,0.67l0.41-0.81l2.64-0.51l1.93-1.93l0.3,4.06c1.35-1.69,2.27-2.74,2.74-3.15c1.08-0.95,2.33-1.42,3.75-1.42
	c0.47,0,1.15,0.39,2.03,1.17c0.88,0.78,2.16,1.2,3.86,1.27h4.77c0.41,0,1.1-0.1,2.08-0.29c0.98-0.19,1.5-0.4,1.57-0.62h1.62
	c-0.07,0.74,0.2,1.12,0.81,1.12c0.41,0,0.96-0.19,1.67-0.56c0.71-0.37,1.23-0.56,1.57-0.56c0.41,0,0.61,0.2,0.61,0.61
	c1.76,0.47,3.38-0.03,4.87-1.52l2.03,0.91h0.91c1.08,0.34,1.86,0.47,2.33,0.41l4.67-0.1l-0.1-1.83
	C125.79,111.62,125.12,109.86,125.12,108.17z"/>
<path d="M161.54,106.65c-0.15,0.07-0.28,0.13-0.42,0.2l-0.09,0.1L161.54,106.65z"/>
<path d="M156.26,110.2c0.22-0.13,0.44-0.27,0.66-0.41c0.56-0.53,0.75-0.8,0.56-0.81C156.95,109.4,156.54,109.81,156.26,110.2z"/>
<path d="M198.68,74.18l-0.2-0.3l0.2-0.2l-7-6.29l-0.3-0.2c-1.22-0.2-2.2-1.18-2.94-2.94c-0.2-0.27-0.37-0.68-0.51-1.22l-9.94-7.31
	c-0.75-0.95-2.5-2.54-5.28-4.77c-2.1-1.69-3.15-3.08-3.15-4.16c-0.47-0.54-0.85-0.98-1.12-1.32l-0.51,0.1
	c-0.47,0.14-0.85,0.2-1.12,0.2c-1.83,0-4.77-2.03-8.83-6.09c-0.14-0.13-0.07-0.57,0.2-1.32v-1.42c-0.14-0.2-1.1-0.51-2.89-0.91
	c-1.79-0.41-2.79-0.71-2.99-0.91l-3.65-2.54l-2.44-2.74c-1.69,0.07-2.77-0.19-3.25-0.76c-0.47-0.57-1.52-0.86-3.15-0.86
	c0.34,2.23,0.68,4.15,1.02,5.77c0.82,0.2,1.43,0.91,1.84,2.12l0.91,1.02l-0.93,1.12v0.1c-0.1,0.27-0.2,0.44-0.3,0.51
	c0,0.07,0,0.17,0,0.3c-0.16,0.54-0.26,0.95-0.3,1.22l0.3,1.02l-0.71,0.41l0.69,15.03c1.12,1.56,2,2.71,2.66,3.45l0.2,1.32
	c0.2,1.01-0.17,2-1.12,2.94h-0.2l-1.52,1.01v2.03c0.47,1.01,0.71,3.82,0.71,8.42c0,2.17-0.25,4.06-0.76,5.68
	c-0.17,6.76-0.25,11.23-0.25,13.39c0.05,0.14,0.08,0.27,0.08,0.41l0.23,0.71c0.13,0.34,0.2,0.54,0.2,0.61
	c0.07,0.27,0.1,0.54,0.1,0.81c0,1.42-0.27,2.6-0.81,3.55c-0.07,7.37-0.14,13.19-0.2,17.45c0.61-0.07,1.42-0.1,2.44-0.1
	c0.74-0.95,1.56-1.42,2.43-1.42c0.27,0,0.56-0.15,0.86-0.46c0.3-0.3,0.51-0.44,0.61-0.41c0.1,0.03,0.32-0.25,0.66-0.86
	c0.34-0.61,0.59-0.91,0.76-0.91c0.17,0,0.52-0.37,1.07-1.12c0.54-0.74,0.88-1.05,1.01-0.91c1.35-0.61,2.44-1.18,3.25-1.73l0.2-2.03
	l2.54,0.3c0,0,0,0,0,0c0.87-0.68,2.09-1.39,3.64-2.13l0.62-0.71c0.68-0.74,1.12-1.22,1.32-1.42c0.61,0,1.88-1.17,3.81-3.5
	c1.93-2.33,3.06-3.6,3.4-3.8l5.89-3.25c0.61-0.54,0.85-0.84,0.71-0.91c0.34-1.35,1.25-2.47,2.74-3.35c0.54-0.81,0.98-1.42,1.32-1.83
	c1.22-1.89,3.48-2.98,6.8-3.25c0.74-0.61,1.69-1.52,2.84-2.74l-0.1-0.1c0.34-0.68,0.64-1.18,0.91-1.52c0.13-1.35,0.74-2.2,1.83-2.54
	c0.07-0.2,0.17-0.57,0.3-1.12c1.22-0.74,2.54-1.22,3.96-1.42L198.68,74.18z M179.3,73.37c-0.2,0.81-0.58,1.59-1.12,2.33l-0.51,0.61
	c-0.75,0.47-1.32,0.81-1.72,1.01c-0.95,1.01-2.33,2.1-4.16,3.25c-1.83,1.15-3.25,2.3-4.26,3.45c-0.54,1.76-1.59,3.16-3.15,4.21
	c-1.56,1.05-3.08,2.08-4.57,3.09c-1.35,1.42-2.37,2.57-3.04,3.45c-0.68-0.68-1.01-2.81-1.01-6.39c0-0.74,0.08-1.86,0.25-3.35
	c0.17-1.49,0.25-2.64,0.25-3.45c0-0.13,0-0.74,0-1.83c-0.2-1.22-0.1-2.54,0.3-3.96c-0.2-2.16-0.3-5.01-0.3-8.52
	c0,0.88,0.1,1.22,0.3,1.01l-0.3-1.72c0-1.01,0.2-1.96,0.61-2.84l0.3-3.65c-0.07-0.2-0.15-0.37-0.22-0.51
	c-0.8-0.74-1.2-1.59-1.2-2.54c0-0.54,0.37-1.66,1.12-3.35c1.91,2.44,3.79,4.08,5.67,4.92c1.87,0.85,3.49,2.11,4.85,3.81
	c0.54,0.34,1.97,1.32,4.29,2.94h-0.91c0.34,0.41,0.9,0.8,1.67,1.17c0.78,0.37,1.34,0.8,1.67,1.27c0.88,0.95,1.47,1.61,1.78,1.98
	c0.3,0.37,0.79,0.64,1.47,0.81c0.68,0.17,1.01,0.46,1.01,0.86l1.22,1.62L179.3,73.37z"/>
<path d="M255.8,108.27c-1.15-0.07-1.96-0.51-2.44-1.32c0.34-1.49,0.51-2.3,0.51-2.43c0-0.41-0.19-0.71-0.56-0.91
	c-0.37-0.2-0.56-0.41-0.56-0.61l-0.61-1.12l0.51-0.71c-1.76-3.92-3.59-8.52-5.48-13.8l-1.12-0.61l-0.71-0.2
	c0.07-0.13,0.15-0.3,0.25-0.51c0.1-0.2,0.15-0.41,0.15-0.61c0,0.14-0.27-0.84-0.81-2.94l-2.13-1.42c0.74-0.74,1.22-1.32,1.42-1.72
	l-0.71-1.83c-0.95-0.88-1.96-2.94-3.04-6.19c-0.95-3.04-1.39-5.31-1.32-6.8v-0.41c-1.89-5.41-3.11-9.57-3.65-12.48
	c-0.61-0.2-0.91-0.64-0.91-1.32c0-0.2,0.2-0.51,0.61-0.91l-1.83-1.72c0.2-0.61-0.37-3.72-1.72-9.33c-1.22-0.88-1.83-2.27-1.83-4.16
	c-0.07-2.57-0.2-4.13-0.41-4.67c-0.07-0.13-0.29-0.15-0.66-0.05c-0.37,0.1-0.59,0.02-0.66-0.25c-0.34,1.42-0.78,3.04-1.32,4.87
	l0.3,0.61c-0.2,0.81-0.41,1.46-0.61,1.93c0.54,0.68,0.81,1.22,0.81,1.62c0,0.27-0.1,0.47-0.3,0.61c-0.54,0.68-0.98,1.15-1.32,1.42
	l-0.3,1.32h-0.71c-1.62,5.14-3.18,9.81-4.67,14c0.2,0.68,0.37,1.22,0.51,1.62c0-0.07-0.41,0.88-1.22,2.84
	c0.07,0.61,0.07,1.12,0,1.52c-0.47,0.34-0.88,0.51-1.22,0.51l0.81,1.22c-0.47,0.34-1.15,0.51-2.03,0.51l-0.71,1.83
	c0.13,1.49-0.42,3.72-1.67,6.7c-1.25,2.98-2.42,5.04-3.5,6.19l-5.17,12.07c0.2,0.81,0.07,1.79-0.41,2.94
	c-0.47,1.15-1.05,1.96-1.72,2.44l-6.39,17.65c0.88,0.54,1.59,0.98,2.13,1.32c0.34-0.13,1.42,0.44,3.24,1.72
	c0.2,0,0.49-0.09,0.86-0.25c0.37-0.17,0.62-0.25,0.76-0.25c0.2,0,0.37,0.17,0.51,0.51c1.89,0.27,2.97,0.67,3.24,1.21l2.94,0.61
	l1.26-4.08c-0.14-0.4,0.02-1.16,0.46-2.28c0.44-1.11,0.66-1.87,0.66-2.28c0-2.76,0.61-4.62,1.83-5.57l0.51-1.62
	c-0.07,0,1.32,0,4.17,0c0.27,0,0.47,0.03,0.61,0.1l5.6-0.2c0.88-0.61,2.07-0.91,3.56-0.91c3.46,0,6.11,0.2,7.94,0.61
	c0.14,0.07,0.29,0.34,0.46,0.81c0.17,0.47,0.49,0.68,0.97,0.61c0.34,0.47,0.51,1.05,0.51,1.73c0,0.34,0.08,0.81,0.25,1.42
	c0.17,0.61,0.26,1.05,0.26,1.32c0,0.2-0.03,0.37-0.1,0.51l2.84,9.44l8.83-2.23l-0.71-1.93l3.75,1.22l3.86-1.01
	c-1.35-2.91-2.2-4.84-2.54-5.78L255.8,108.27z M233.89,90.72c-0.27-0.13-0.88-0.2-1.83-0.2l-0.91,2.54c-0.27,0-0.59-0.42-0.96-1.27
	c-0.37-0.85-0.69-1.27-0.96-1.27c-4.74,0-7.04,0.03-6.9,0.1c-1.01,0-2.4,0.1-4.16,0.3c1.62-3.18,2.81-5.41,3.55-6.7h-0.3
	c0.2-0.27,0.52-1.27,0.96-2.99c0.44-1.72,0.83-2.72,1.17-2.99c1.62-5.34,2.81-9.4,3.55-12.18l0.41,0.2
	c1.01,2.84,2.47,7.27,4.36,13.29c0.13,0.54,0.24,1.52,0.3,2.94c0,1.01,0.34,2.03,1.01,3.04l2.64,5.28
	C234.8,90.89,234.16,90.85,233.89,90.72z"/>
<path d="M283.36,47.35c0.02,0.03,0.04,0.05,0.04,0.04C283.4,47.32,283.39,47.32,283.36,47.35z"/>
<path d="M282.69,108.22c0-3,0.17-4.77,0.51-5.32l0.71-3.58c-0.41-0.34-0.61-1.19-0.61-2.56c-0.07-0.95-0.1-1.89-0.1-2.81
	c0-0.92-0.36-1.43-1.07-1.53c-0.71-0.1-1.07-0.46-1.07-1.07c0-0.61,0.2-1.6,0.61-2.96l1.72,1.83l-0.71-4.36
	c0.34-1.42,0.57-3.48,0.71-6.19c0-1.83-0.03-4.36-0.1-7.61c-0.14-3.86-0.2-6.22-0.2-7.1c0-2.37,0.1-3.99,0.3-4.87l-2.03-3.45
	c0.07-0.34,0.74-0.37,2.03-0.1c0-1.35-0.41-2.16-1.22-2.43l0.81-1.22l-0.71-0.51l0.37-2.33c0.39-1.65,0.63-2.54,0.71-2.68
	c-0.13-0.19-0.62-1.08-1.49-2.7c0.48-1.42,0.9-2.43,1.25-3.04c0.25-4.73,0.33-8.32,0.27-10.76l-14.22,0.2l-1.4,1.42
	c0.27,0.27,0.51,1.1,0.71,2.49c0.2,1.39,0.47,2.22,0.81,2.49c-0.2,0.2-0.3,0.47-0.3,0.81c0,0.88,0.51,2.4,1.52,4.57
	c-0.16,0.68-0.48,1.24-0.98,1.67c-0.5,0.44-0.68,0.73-0.54,0.86c0.29,5.95,0.51,10.25,0.66,12.89c1.25,1.08,1.88,2.33,1.88,3.75
	c0,1.96-0.58,3.21-1.72,3.75c0,1.08,0.15,2.72,0.46,4.92c0.3,2.2,0.46,3.87,0.46,5.02c0,1.62-0.29,4.25-0.86,7.86
	c-0.58,3.62-0.86,6.31-0.86,8.07c0,1.35,0.13,2.6,0.41,3.75c0.81,0.2,1.62,0.34,2.44,0.41l-1.47,4.06l-1.37,1.52
	c0,1.42,0.13,2.94,0.41,4.57c0.07,1.01-0.07,2.54-0.41,4.57l1.62,2.23c0.27,0.34,0.07,0.88-0.61,1.62
	c-0.34,0.27-0.68,0.51-1.01,0.71c0.54-0.07,0.95-0.03,1.22,0.1c0.27,0.14,0.68,0.24,1.22,0.3c0.95-1.01,1.83-1.52,2.64-1.52
	c0.13,0,0.37,0.25,0.71,0.76c0.34,0.51,0.57,0.76,0.71,0.76l0.81-0.3l1.22,0.3l-0.2-0.81l1.83,0.81h3.86h1.93l-0.1-1.94
	C283.4,111.76,282.69,109.99,282.69,108.22z"/>
<path d="M349.66,75.49l-0.1,0.06C349.59,75.63,349.62,75.62,349.66,75.49z"/>
<path d="M375.63,113.45c-1.15-0.2-1.93-0.78-2.33-1.72l-1.01-0.61c-0.07-0.47,0.13-0.95,0.61-1.42c-0.07-0.13-0.1-0.25-0.1-0.36
	c0-0.1-0.09-0.25-0.25-0.46c-0.17-0.2-0.25-0.37-0.25-0.51l0.91,0.51l0.3-0.41l-0.51-0.41l0.71-0.51c0-0.07-0.03-0.2-0.1-0.41
	c-0.07-0.2-0.1-0.34-0.1-0.41l-0.91-0.3l0.61-0.51c-1.56-4.67-2.94-9.47-4.16-14.41c-0.34-0.34-0.64-0.61-0.91-0.81
	c-0.75,0-1.35-0.34-1.83-1.01c-0.61-0.47-1.05-1.25-1.32-2.33c-0.34-1.35,0.27-2.84,1.83-4.46c-0.06-0.41-0.15-0.98-0.27-1.73
	c-0.69-0.61-1.27-1.79-1.76-3.55c-0.07-0.2-0.41-1.5-1.03-3.9c-0.62-2.4-0.76-4.51-0.42-6.34c-1.89-7.64-3.7-16.17-5.45-25.57
	c-0.68-0.81-1.08-1.56-1.22-2.23c-0.41-1.49-0.41-2.67,0-3.55c-0.34-1.49-0.51-2.71-0.51-3.65c0-0.95-0.17-2.2-0.5-3.75l-3.44-0.3
	l-1.01,6.18l-1.41,3.45c0.07,0.07-0.2,0.44-0.81,1.12c-0.61,0.68-0.91,1.05-0.91,1.11c0,0.27-0.08,0.69-0.25,1.27
	c-0.17,0.57-0.25,1.03-0.25,1.37c0,0.74-0.17,1.35-0.51,1.82c-0.47-0.07-1.11,1.86-1.92,5.78c-0.81,3.92-1.28,5.92-1.41,5.98
	l-0.71,3.65c-1.01,0.75-1.72,2.06-2.12,3.95c-0.34,1.56-0.64,3.11-0.91,4.66c-1.68,4.33-3.03,7.54-4.04,9.63
	c-1.42-3.58-2.81-7.34-4.16-11.26c-1.64-3.78-2.94-7.33-3.89-10.64l-1.84-3.45l-2.77-9.02c-0.62-0.47-0.92-0.84-0.92-1.12
	c0-0.07,0.12-0.34,0.36-0.81c0.24-0.47,0.36-0.98,0.36-1.52c0-0.4-0.49-1.5-1.47-3.29c-0.98-1.79-1.4-2.92-1.27-3.4l-1.83-5.47
	l-1.01,0.3l-1.93,0.1l-1.01,3.25l0.3,3.25l0.1,0.2l0.51,0.41c0.13,0.88,0.24,1.56,0.3,2.03l-0.81,0.71
	c-0.34,0.75-0.71,1.35-1.12,1.83l-0.1,1.12l-0.71,0.2c-1.35,7.17-2.37,12.72-3.04,16.64c1.15,2.37,1.72,3.92,1.72,4.67
	c0,1.89-1.08,3.15-3.25,3.75l-0.51,0.1l-0.51,1.93c0.13,0.41,0.2,0.91,0.2,1.52c0,1.08-0.44,3.32-1.32,6.7
	c-0.54,2.23-1.35,4.06-2.44,5.48c-1.08,4.4-2.27,8.76-3.55,13.09c0.13,1.35,0.17,2.2,0.1,2.54c-0.34,1.49-0.88,2.54-1.62,3.15
	c-1.83,6.29-3.21,11.06-4.16,14.31l2.23,1.72c0.95-0.75,1.86-1.01,2.74-0.81c1.08,0.27,1.62,0.71,1.62,1.32
	c1.22-0.07,2.1,0.3,2.64,1.12c1.62,0.41,3.31,0.78,5.07,1.12c0.13-0.81,0.24-1.42,0.3-1.83c-0.81-2.03-0.98-3.89-0.51-5.58
	c0.2-1.01,0.64-1.93,1.32-2.74c0.2-0.54,0.54-1.01,1.01-1.42l1.22-5.99c-0.61-1.22-0.75-2.57-0.41-4.06
	c0.88-2.64,1.56-4.6,2.03-5.88c-0.07-0.95,0.07-1.93,0.41-2.94h-0.2c0.74-1.42,1.25-2.3,1.52-2.64c0.27-2.5,0.41-4.36,0.41-5.58
	c0.68-1.22,1.28-2.27,1.83-3.15c0-0.13,0-0.84,0-2.13c0-1.22,0.03-1.89,0.1-2.03c0.61-1.49,1.22-2.84,1.83-4.06
	c0.95,1.01,1.74,2.67,2.38,4.97c0.64,2.3,0.9,4.23,0.76,5.78l0.71,1.83c0.88,0.07,1.56,0.24,2.03,0.51l-0.81,1.32
	c0.34,0,0.74,0.17,1.22,0.51c0.07,0.34,0.07,0.85,0,1.52c0.81,1.96,1.22,2.91,1.22,2.84c-0.2,0.54-0.37,1.08-0.51,1.62
	c1.89,6.16,3.25,10.79,4.06,13.9h0.71l0.41,1.42c0.68,0.68,1.08,1.1,1.22,1.27c0.13,0.17,0.42,0.61,0.86,1.32
	c0.44,0.71,0.66,1.1,0.66,1.17c0,0.2-0.3,0.2-0.91,0c-0.61-0.2-0.98-0.24-1.12-0.1c0.2,0.88,0.41,1.52,0.61,1.93l-0.2,0.61
	c0.95,2.71,1.76,4.9,2.44,6.6c0.81-0.34,1.56-0.44,2.23-0.3c0.68-3.04,1.12-5.99,1.32-8.83c1.35-5.62,1.96-8.73,1.83-9.34l2.33-1.62
	c-0.47-0.41-0.71-0.74-0.71-1.01c0-0.68,0.34-1.12,1.01-1.32c0.54-2.84,1.76-7,3.65-12.48v-0.3c-0.05-1.32-0.11-2.04-0.19-2.17
	c0.19-0.2,0.62-0.59,1.31-1.18l0.71-1.83c-0.61-0.95-1.12-1.56-1.52-1.83l2.03-1.26c-0.07-0.22-0.11-1.18-0.11-2.9
	c0-0.13,0.19-0.57,0.58-1.32c0.38-0.74,0.54-1.18,0.47-1.32l2.99,14.22l1.55,5.07c-0.27-0.61-0.54-1.28-0.81-2.03
	c0.54,1.56,0.98,2.88,1.32,3.96l0.81-2.84l0.41,1.62l1.32,1.32c0.13,0.81,0.2,1.49,0.2,2.03c0,1.08-0.24,1.62-0.71,1.62
	c-0.61,0-1.01-0.24-1.22-0.71c0.2,0.41,0.36,0.78,0.46,1.12c0.1,0.34,0.29,0.73,0.56,1.17c0.27,0.44,0.37,1.07,0.3,1.88l-0.41,3.15
	c0.95,0.61,1.86,1.15,2.74,1.62c0.2,1.22,0.17,2.23-0.1,3.04c0,0.14,0.07,0.2,0.2,0.2c0.27,0,0.81-0.95,1.62-2.84l2.84,2.03
	c-1.08,0.88-2.17,1.79-3.25,2.74c0.07-0.27-0.07-0.41-0.41-0.41c-0.41,0-0.85,0.12-1.32,0.36c-0.47,0.24-0.61,0.42-0.41,0.56
	l0.61,1.62l-0.41,1.62c-0.07,0.34,0.12,0.88,0.56,1.62c0.44,0.75,0.69,1.22,0.76,1.42c0.41,2.5,0.68,4.13,0.81,4.87l15.22-3.75
	c-0.41-1.01-0.75-1.93-1.01-2.74L375.63,113.45z"/>
<path d="M448.28,69.71l-0.2-1.42c-0.95-0.47-1.49-1.25-1.62-2.33c-0.75-0.34-0.98-0.85-0.71-1.52c-1.49-2.57-3.15-3.86-4.97-3.86
	c-0.34-0.47-0.58-1.2-0.71-2.18c-0.14-0.98-0.37-1.61-0.71-1.88l-5.17,0.91c-0.41-1.28-0.61-2.27-0.61-2.94
	c0-0.81,0.27-1.22,0.81-1.22c0.27,0,0.64,0.09,1.12,0.25c0.47,0.17,0.74,0.25,0.81,0.25c0.07,0,0.1-0.03,0.1-0.1
	c0-0.2-0.58-1.08-1.72-2.64l-11.57-17.12l-4.57-5.81h-2.03l-0.51,1.72c-0.47-1.28-1.15-1.86-2.03-1.72
	c-3.45,3.86-5.58,6.12-6.39,6.8l-1.22,3.45l-2.43,0.41c-0.14,1.29-3.89,6.63-11.26,16.03c-0.2,0.27,0.02,0.64,0.66,1.12
	c0.64,0.47,0.86,0.85,0.66,1.12c-1.69,0.88-3.25,1.56-4.67,2.03c-4.8,6.02-7.95,9.98-9.44,11.87c-0.27,0.75-0.78,1.66-1.52,2.74
	l1.93,2.44c0.34,0.14,0.83-0.08,1.47-0.66c0.64-0.57,1.1-0.86,1.37-0.86c0.13,0,0.27,0.07,0.41,0.2c-0.14,2.23-0.14,3.82,0,4.77
	c0.41,0.81,1.52,2,3.35,3.55c1.96,1.83,3.25,2.6,3.86,2.33c1.35,2.17,2.2,3.59,2.54,4.26l4.67,0.81c0.54,0.88,0.81,1.59,0.81,2.13
	c0,0.74-0.41,1.12-1.22,1.12c-0.88,0-1.46-0.24-1.73-0.71l13.19,19.99c1.22,0.81,2.1,1.66,2.64,2.54c0.68,1.15,1.39,2.27,2.13,3.35
	l1.52-2.74l1.22,3.55l2.64,0.1l2.64-3.35l2.23-4.67l0.91,0.3l1.01-1.52c0.13-1.22,3.04-5.21,8.73-11.97
	c3.45-4.13,6.9-8.25,10.35-12.38c1.56-4.87,2.33-7.98,2.33-9.33c0-0.11-0.01-0.2-0.01-0.27c0.54,0.18,1.07,0.54,1.59,1.09
	c0.62,0.65,0.95,1.19,1.03,1.63l3.59-6.7C452.68,72.45,450.92,71.47,448.28,69.71z M437.83,75.19l-5.48,5.17
	c-0.2-0.13-0.46,0.36-0.76,1.47c-0.2,0.72-0.33,1.19-0.4,1.42c0.03-0.03,0.08-0.05,0.14-0.05c0.34,0,1.1,0.3,2.28,0.91
	c1.18,0.61,1.81,0.91,1.88,0.91l-9.03,2.94l-3.35,5.38c-2.17,2.23-3.32,3.45-3.45,3.65c-0.14,0.2-1.15,1.73-3.04,4.57
	c-0.61-0.13-1.22-0.3-1.83-0.51c-0.81-0.27-1.12-1.05-0.91-2.33c-1.01-0.27-2.54-1.93-4.57-4.97c-1.56-2.3-3.08-4.63-4.57-7
	c-3.04-1.01-4.74-3.55-5.07-7.61c0.07-0.34-0.37-1.1-1.32-2.28c-0.95-1.18-1.76-2.01-2.44-2.49l-2.64-1.93l4.16-3.55
	c0.13-1.62,0.84-2.94,2.13-3.96c1.96-1.42,3.11-2.37,3.45-2.84c0.13-0.2,0.2-0.44,0.2-0.71c0-0.61-0.24-1.66-0.71-3.15
	c-0.41-1.28-0.54-1.93-0.41-1.93c0.07,0,0.13,0.03,0.2,0.1l2.23,1.93c0-0.07,0.41-0.1,1.22-0.1l0.41-1.52l-1.12-1.93h2.73
	c1.48-1.35,2.76-3.07,3.84-5.16c1.35-2.76,2.42-4.69,3.23-5.77c1.36,2.22,2.79,4.21,4.29,5.96c1.29,0.34,2.44,1.59,3.45,3.75
	c0.75,1.69,1.52,3.42,2.34,5.17c0.81,1.49,2.61,3.75,5.38,6.8c2.57,2.84,4.23,5.04,4.97,6.59h0.41v1.72c-0.14,0.2-0.2,0.37-0.2,0.51
	c0,0.14,0.17,0.2,0.51,0.2c0.13,0,0.37,0,0.71,0c0.34-0.07,0.61-0.1,0.81-0.1c0.34,0,0.51,0.1,0.51,0.3
	C438.03,74.92,437.96,75.06,437.83,75.19z"/>
<path d="M450.01,79.56c0-0.06-0.02-0.13-0.03-0.2l-0.27,0.5C449.9,79.86,450.01,79.76,450.01,79.56z"/>
<path d="M431.19,83.26c-0.04,0.03-0.06,0.08-0.06,0.15C431.13,83.44,431.15,83.38,431.19,83.26z"/>
<path d="M478.52,85.54c-0.07,0-0.14,0.1-0.2,0.3C478.45,85.98,478.52,85.88,478.52,85.54z"/>
<polygon points="515.55,113.04 515.35,112.63 515.35,112.94 515.45,112.94 "/>
<path d="M512.51,108.58l2.23-1.32c0-0.07-0.17-0.68-0.51-1.83l0.51-0.41c-0.27-4.8-0.44-9.94-0.51-15.42
	c-0.27-0.47-0.51-0.81-0.71-1.01c-0.88-0.34-1.46-0.91-1.72-1.72c-0.07-0.2,0.25-0.59,0.96-1.17c0.71-0.57,1.07-1,1.07-1.27
	c-0.14-0.41-0.37-0.88-0.71-1.42c-0.34-0.54-0.51-0.88-0.51-1.01c0-0.2,0.37-0.51,1.12-0.91l0.51-0.3v-1.93
	c-0.47-0.81-0.71-2.06-0.71-3.75c0-0.28,0-1.59,0-3.96c0,0.14-0.1-0.91-0.3-3.15c-0.14-1.35-0.04-2.44,0.3-3.25
	c0-1.22,0.12-3.31,0.36-6.29c0.24-2.98,0.36-4.9,0.36-5.78c0-0.81-0.07-1.32-0.2-1.52l-1.22-1.52l1.35-4.26
	c0-2.5,0.19-7.27,0.58-14.31c-0.33,0-1.1-0.03-2.3-0.1c-0.67,1.01-1.46,1.52-2.4,1.52c-0.27,0-0.37-0.15-0.3-0.46
	c0.07-0.3-0.03-0.52-0.3-0.66c-0.27-0.13-0.57-0.24-0.9-0.3l-0.4,4.57c-0.81-1.06-1.56-2.11-2.23-3.17c-0.88-0.7-1.56-1.3-2.03-1.8
	l-4.06,0.2c0.07,0.82,0.1,1.43,0.1,1.84c1.22,1.85,1.83,3.65,1.83,5.43c0,0.96-0.2,1.91-0.61,2.87c-0.07,0.62-0.3,1.2-0.71,1.74
	c0,1.5,0.03,2.94,0.1,4.3c0.81,1.3,1.22,2.43,1.22,3.38c0,0.89-0.06,1.4-0.17,1.54c-0.06-0.07-0.11-0.13-0.17-0.2
	c-0.06,0.07-0.09,0.58-0.09,1.52c0-0.13-0.2,0.85-0.59,2.94c0.81,2.23,1.15,3.59,1.01,4.06l-0.81,4.06c0,1.22,0.13,2.64,0.41,4.26
	c0.27,1.62,0.41,1.76,0.41,0.41v2.74c0,2.5,0,4.4,0,5.68c-1.16-1.42-1.78-2.2-1.85-2.33c-7.87-9.67-12.17-15.79-12.92-18.37
	l-3.9-1.62c0.61,0.07,0.91-0.13,0.91-0.61c0.07-0.13,0.03-0.57-0.1-1.32c-0.14-0.47-0.07-0.71,0.2-0.71l-8.02-10.55l-2.54,0.51
	l0.81-2.74c-1.34-2.77-2.25-3.89-2.71-3.35c-2.41-3.25-3.82-5.14-4.22-5.68c-0.6,0.27-1.14,0.47-1.61,0.61l-1.21-0.61l-1.21,0.41
	c0.13,0.34,0.13,1.39,0,3.15c-0.14,1.76-0.14,2.78,0,3.05c0,0.14,0,0.34,0,0.61c0,0.48,0.34,1.29,1.01,2.44
	c0.41,0.81,0.84,1.59,1.32,2.34c-0.21,0.68-0.67,1.24-1.38,1.68c-0.71,0.44-1.02,0.73-0.96,0.86c0.35,5.97,0.56,10.27,0.63,12.92
	c1.81,1.49,2.72,2.75,2.72,3.76c0,1.76-0.88,3.02-2.64,3.76c0.07,1.08,0.25,2.73,0.56,4.93c0.3,2.2,0.46,3.88,0.46,5.04
	c0,1.63-0.29,4.26-0.86,7.88c-0.58,3.63-0.86,6.32-0.86,8.09c0,1.36,0.1,2.61,0.3,3.76c0.88,0.2,1.72,0.34,2.54,0.41l-1.47,4.07
	l-1.37,1.53c0,1.42,0.1,3.02,0.3,4.78c0.13,1.08,0.03,2.64-0.3,4.68l1.73,2.24c0.47,0.61,0.01,1.39-1.4,2.34h-0.02
	c0.34,0,0.64,0.09,0.91,0.25c0.27,0.17,0.68,0.25,1.22,0.25c0.95-1.08,1.83-1.62,2.64-1.62c0.07,0,0.29,0.22,0.66,0.66
	c0.37,0.44,0.62,0.66,0.76,0.66l0.81-0.1l1.12,0.1l-0.1-0.61l1.83,0.61h3.75h1.93v-1.93c-1.42-1.83-2.13-3.58-2.13-5.28
	c0-3.18,0.2-5.04,0.59-5.58l0.83-3.55c-0.41-0.27-0.61-0.57-0.61-0.91c0-0.34,0.1-0.85,0.3-1.52c0.2-0.68,0.3-1.15,0.3-1.42
	c-0.07-0.88-0.46-1.37-1.17-1.47c-0.71-0.1-1.06-0.49-1.06-1.17c0-0.61,0.16-1.56,0.49-2.84l1.75,1.83l-0.61-4.36
	c0.13-0.68,0.27-1.18,0.41-1.52c-0.07-0.41-0.1-1.18-0.1-2.33c0-2.37,0.1-3.99,0.3-4.87l-2.23-3.45c0-0.34,0.74-0.37,2.23-0.1
	c0-1.35-0.44-2.16-1.32-2.44l0.91-1.32l-0.81-0.41l0.49-2.33c0.24-0.88,0.49-1.76,0.73-2.64c0-0.07-0.34-0.68-1.01-1.83l0.3,0.1
	c0.2,0.14,0.37,0.27,0.51,0.41c0.95,1.89,1.73,3.69,2.33,5.38c0.13,0.2,0.61,0.32,1.42,0.36c0.81,0.03,1.22,0.19,1.22,0.46l0.1,0.1
	c-0.34,1.29-0.61,2.17-0.81,2.64l1.12,1.62c1.49,0.61,2.54,1.52,3.15,2.74c2.16,3.32,3.72,5.34,4.67,6.09
	c1.42,1.89,2.33,3.65,2.74,5.28c0.81,1.15,1.79,2.77,2.94,4.87c1.15,2.1,2.2,3.79,3.15,5.07c0.07,0.07,0.17,0.14,0.3,0.2
	c0.95,0.14,1.76,0.17,2.44,0.1c0.34,0.2,0.54,0.88,0.61,2.03c0.07,0.81,0.1,1.62,0.1,2.44l6.6,8.52l2.03,3.04l3.25,0.3
	c-0.14-1.22-0.24-2.2-0.3-2.94C514.2,112.6,513.25,111.15,512.51,108.58z"/>
<path d="M463.7,115.37h-0.41C463.43,115.44,463.57,115.44,463.7,115.37z"/>
<path d="M542.44,99.92c0-2.38,0.13-3.77,0.41-4.18l0.61-3.47c-0.34-0.34-0.51-1.02-0.51-2.04c-0.07-0.75-0.1-1.49-0.1-2.24
	s-0.22-1.22-0.66-1.43c-0.44-0.2-0.76-0.34-0.96-0.41c-0.27-0.07-0.24-0.68,0.1-1.83l2.03,2.03l-0.91-5.07
	c0.41-1.69,0.61-4.5,0.61-8.42c0-1.01,0-2.64,0-4.87c0-2.03,0-3.48,0-4.36c0-1.96,0-3.35,0-4.16l-1.52-2.84
	c0.61,0.27,1.12,0.51,1.52,0.71c0-1.56-0.27-2.57-0.81-3.04l0.81-1.01l-0.91-0.51c0.27-1.62,0.47-2.7,0.61-3.25
	c0.13-0.47,0.13-0.88,0-1.22c-0.41-0.81-0.71-1.42-0.91-1.83c0.41-1.01,0.72-1.83,0.96-2.44c0.17-4.19,0.26-7.37,0.26-9.54
	l-12.3,0.1l-1.5,1.62c0.29,0.41,0.48,0.78,0.55,1.12c0.51,2.1,0.77,3.18,0.77,3.25c-0.3,0.81,0.11,2.3,1.21,4.46
	c-0.16,0.41-0.41,0.78-0.73,1.12l-0.24,0.2c-0.3,0.27-0.38,0.58-0.24,0.91c0.27,5.01,0.41,8.62,0.41,10.86
	c1.01,0.95,1.52,1.93,1.52,2.94c0,1.49-0.51,2.47-1.52,2.94c0.07,1.01,0.22,2.47,0.46,4.36c0.24,1.89,0.36,3.32,0.36,4.26
	c0,1.49-0.24,3.7-0.71,6.65c-0.47,2.94-0.71,5.16-0.71,6.65c0,1.22,0.1,2.37,0.3,3.45c0.07,0.27,0.34,0.44,0.81,0.51
	c0.54,0.07,0.95-0.03,1.22-0.3l-1.12,3.15l-1.12,1.32c0,1.35,0.07,2.74,0.2,4.16c0.07,0.81,0,2.1-0.2,3.86l1.32,2.03
	c0.2,0.27-0.07,0.71-0.81,1.32c0.11,0.2,0.24,0.34,0.41,0.41l-0.41,0.51c0.39-0.07,0.66-0.07,0.79,0l0.1,0.1
	c0.53,0.14,0.92,0.2,1.19,0.2c0.73-0.81,1.35-1.22,1.88-1.22c0.61,0.81,1.22,1.18,1.83,1.11l1.62,0.11l-0.1-0.41
	c0.41,0.27,0.68,0.41,0.81,0.41h3.15l2.03-0.1l-0.1-2.24C543.01,102.74,542.44,101.28,542.44,99.92z"/>
<path d="M542.34,17.76l-1.22-0.71c-0.47-0.27-0.81-0.68-1.01-1.22l-0.1-0.41c-0.07-0.13-0.17-0.27-0.3-0.41
	c-1.89-2.1-3.32-3.69-4.26-4.77l-1.32-0.71c-0.47-0.27-0.81-0.64-1.01-1.12L533,8.02c-0.47-0.68-0.88-1.18-1.22-1.52l-1.83,1.83
	h-0.2l-3.55,3.79c0.34,0.33,0.61,0.63,0.81,0.9l0.3,0.4c0.41,0.53,1.05,0.73,1.93,0.6c0.13-0.07,0.2-0.13,0.2-0.2l-0.51,1.72
	c0.68,0.34,1.08,0.64,1.22,0.91c0.54,0.75,1.05,1.17,1.52,1.27c0.47,0.1,0.74,0.2,0.81,0.3c0.07,0.1,0.13,0.52,0.2,1.27l1.62,1.62
	c0.41,0.54,1.05,0.75,1.93,0.61c0.07-0.07,0.13-0.13,0.2-0.2l-0.61,1.72c0.47,0.07,0.74,0.17,0.81,0.3
	c1.15,1.22,1.79,1.83,1.93,1.83c0.41,0.07,0.64,0.17,0.71,0.3c0.07,0.68,0.13,1.18,0.2,1.52l1.12,1.52
	c0.95-0.81,1.66-1.42,2.13-1.83v-0.41c0.27,0.2,0.54,0.14,0.81-0.2c0.07-0.34,0.1-0.57,0.1-0.71v-0.2c0.2-0.2,0.37-0.34,0.51-0.41
	c0-0.54,0.1-0.95,0.3-1.22l0.1,0.1c0.2,0.14,0.51,0.24,0.91,0.3c0.41-0.41,0.98-0.98,1.73-1.72
	C545.45,20.4,543.83,18.91,542.34,17.76z"/>
<path d="M614.28,114.16c-1.35-2.91-2.2-4.84-2.54-5.78l-0.1-0.1c-1.15-0.07-1.96-0.51-2.44-1.32c0.34-1.49,0.51-2.3,0.51-2.43
	c0-0.41-0.19-0.71-0.56-0.91c-0.37-0.2-0.56-0.41-0.56-0.61l-0.61-1.12l0.51-0.71c-1.76-3.92-3.59-8.52-5.48-13.8l-1.12-0.61
	l-0.71-0.2c0.07-0.13,0.15-0.3,0.25-0.51c0.1-0.2,0.15-0.41,0.15-0.61c0,0.14-0.27-0.84-0.81-2.94l-2.13-1.42
	c0.74-0.74,1.22-1.32,1.42-1.72l-0.71-1.83c-0.95-0.88-1.96-2.94-3.04-6.19c-0.95-3.04-1.39-5.31-1.32-6.8v-0.41
	c-1.89-5.41-3.11-9.57-3.65-12.48c-0.61-0.2-0.91-0.64-0.91-1.32c0-0.2,0.2-0.51,0.61-0.91l-1.83-1.72c0.2-0.61-0.37-3.72-1.72-9.33
	c-1.22-0.88-1.83-2.27-1.83-4.16c-0.07-2.57-0.2-4.13-0.41-4.67c-0.07-0.13-0.29-0.15-0.66-0.05c-0.37,0.1-0.59,0.02-0.66-0.25
	c-0.34,1.42-0.78,3.04-1.32,4.87l0.3,0.61c-0.2,0.81-0.41,1.46-0.61,1.93c0.54,0.68,0.81,1.22,0.81,1.62c0,0.27-0.1,0.47-0.3,0.61
	c-0.54,0.68-0.98,1.15-1.32,1.42l-0.3,1.32h-0.71c-1.62,5.14-3.18,9.81-4.67,14c0.2,0.68,0.37,1.22,0.51,1.62
	c0-0.07-0.41,0.88-1.22,2.84c0.07,0.61,0.07,1.12,0,1.52c-0.47,0.34-0.88,0.51-1.22,0.51l0.81,1.22c-0.47,0.34-1.15,0.51-2.03,0.51
	l-0.71,1.83c0.13,1.49-0.42,3.72-1.67,6.7c-1.25,2.98-2.42,5.04-3.5,6.19l-5.17,12.07c0.2,0.81,0.07,1.79-0.41,2.94
	c-0.47,1.15-1.05,1.96-1.72,2.44l-6.39,17.65c0.88,0.54,1.59,0.98,2.13,1.32c0.34-0.13,1.42,0.44,3.24,1.72
	c0.2,0,0.49-0.09,0.86-0.25c0.37-0.17,0.62-0.25,0.76-0.25c0.2,0,0.37,0.17,0.51,0.51c1.89,0.27,2.97,0.67,3.24,1.21l2.94,0.61
	l1.26-4.08c-0.14-0.4,0.02-1.16,0.46-2.28c0.44-1.11,0.66-1.87,0.66-2.28c0-2.76,0.61-4.62,1.83-5.57l0.51-1.62
	c-0.07,0,1.32,0,4.17,0c0.27,0,0.47,0.03,0.61,0.1l5.6-0.2c0.88-0.61,2.07-0.91,3.56-0.91c3.46,0,6.11,0.2,7.94,0.61
	c0.14,0.07,0.29,0.34,0.46,0.81c0.17,0.47,0.49,0.68,0.97,0.61c0.34,0.47,0.51,1.05,0.51,1.73c0,0.34,0.08,0.81,0.25,1.42
	c0.17,0.61,0.25,1.05,0.25,1.32c0,0.2-0.03,0.37-0.1,0.51l2.84,9.44l8.83-2.23l-0.71-1.93l3.75,1.22L614.28,114.16z M589.72,90.72
	c-0.27-0.13-0.88-0.2-1.83-0.2l-0.91,2.54c-0.27,0-0.59-0.42-0.96-1.27c-0.37-0.85-0.69-1.27-0.96-1.27c-4.74,0-7.04,0.03-6.9,0.1
	c-1.01,0-2.4,0.1-4.16,0.3c1.62-3.18,2.81-5.41,3.55-6.7h-0.3c0.2-0.27,0.52-1.27,0.96-2.99c0.44-1.72,0.83-2.72,1.17-2.99
	c1.62-5.34,2.81-9.4,3.55-12.18l0.41,0.2c1.01,2.84,2.47,7.27,4.36,13.29c0.13,0.54,0.24,1.52,0.3,2.94c0,1.01,0.34,2.03,1.01,3.04
	l2.64,5.28C590.64,90.89,589.99,90.85,589.72,90.72z"/>
<path d="M315.36,157.08c0.79-0.22,1.53-0.57,2.22-1.02c4.58-2.98,5.68-9.39,2.36-13.8c-3.37-4.49-9.69-4.85-13.5-0.73
	c-2.01,2.17-2.83,4.79-2.44,7.71c0.48,3.6,2.4,6.17,5.77,7.61c0.66,0.28,0.62,0.14,0.62,0.91c0,11.89,0,13.35-0.01,25.24
	c0,0.53,0.1,0.98,0.55,1.29c1.17,0,2.33,0,3.5,0c0.29-0.19,0.57-0.42,0.55-0.79c-0.02-0.39,0.17-0.44,0.5-0.44
	c1.43,0.01,2.85,0,4.28,0.01c0.32,0,0.44-0.11,0.44-0.43c-0.01-0.75-0.01-1.5,0-2.26c0-0.3-0.11-0.43-0.41-0.41
	c-0.3,0.02-0.6,0-0.89,0c-1.03,0-1.03,0-1.03-1.02c0-0.57,0-0.57,0.55-0.57c0.16,0,0.31-0.01,0.47,0c0.34,0.03,0.5-0.09,0.48-0.46
	c-0.02-0.45-0.02-0.91,0-1.36c0.02-0.37-0.13-0.47-0.48-0.47c-1.14,0.01-2.28,0-3.42,0.01c-0.32,0-0.46-0.07-0.46-0.43
	c0.01-9.52,0.01-8.6,0-18.12C315,157.3,315.08,157.16,315.36,157.08z M314.78,153.46c-2.5,1.01-5.25,0.03-6.66-2.38
	c-1.52-2.58-0.73-6.11,1.73-7.74c3.25-2.15,7.65-0.19,8.3,3.69c0.06,0.37,0.1,0.74,0.09,0.98
	C318.24,150.53,316.88,152.61,314.78,153.46z"/>
</svg>
