<svg xmlns="http://www.w3.org/2000/svg" xmlns:xlink="http://www.w3.org/1999/xlink" xmlns:serif="http://www.serif.com/" width="100%" height="100%" viewBox="0 0 1303 1303" xml:space="preserve" style="fill-rule:evenodd;clip-rule:evenodd;stroke-linejoin:round;stroke-miterlimit:2;">  <path d="M1302.08,651.042c0,359.557 -291.484,651.041 -651.041,651.041c-359.558,0 -651.042,-291.484 -651.042,-651.041c0,-359.558 291.484,-651.042 651.042,-651.042c359.557,0 651.041,291.484 651.041,651.042" style="fill-rule:nonzero;"></path>  <path d="M1286.22,651.043c0,350.794 -284.375,635.182 -635.182,635.182c-350.794,0 -635.169,-284.388 -635.169,-635.182c-0,-350.794 284.375,-635.182 635.169,-635.182c350.807,-0 635.182,284.388 635.182,635.182" style="fill:#fff;fill-rule:nonzero;"></path>  <path d="M646.021,305.737c49.088,-0 95.742,10.352 137.956,28.958l56.744,-34.713c-57.63,-32.357 -124.036,-50.847 -194.7,-50.847c-71.511,0 -138.646,18.946 -196.719,52.032l56.497,34.557c42.787,-19.258 90.248,-29.987 140.222,-29.987" style="fill-rule:nonzero;"></path>  <path d="M258.26,554.762l-40.729,-0c18.828,-86.784 63.334,-163.972 125.156,-223.216l-1.666,-65.99c-89.193,71.237 -153.034,172.93 -175.586,289.206c-4.297,22.148 -7.123,44.817 -8.32,67.916l147.539,0c1.718,-23.372 5.846,-46.08 12.031,-67.916c7.187,-25.443 17.266,-49.675 29.818,-72.331l-2.396,-94.674c-40.821,47.317 -70.755,104.309 -85.847,167.005" style="fill-rule:nonzero;"></path>  <path d="M733.701,166.574l-0,-40.299c250.52,41.771 441.497,259.492 441.497,521.875c-0,256.406 -182.37,470.195 -424.479,518.789c-13.034,2.617 -26.25,4.752 -39.61,6.393l0,-189.036c-0.026,0.013 -0.039,0.013 -0.065,0.013l0,-23.685c-14.765,3.151 -29.883,5.286 -45.312,6.328l-0,31.693l0.091,48.007l-0,184.063c312.305,-10.482 563.138,-267.761 563.138,-582.565c-0,-291.641 -215.274,-533.867 -495.26,-576.289c-22.24,-3.373 -44.883,-5.508 -67.878,-6.289l-0,144.453c23.151,1.028 45.807,3.919 67.878,8.398c52.434,10.638 101.458,30.638 145.286,58.164l47.747,-29.205c-56.731,-39.831 -122.252,-67.956 -193.033,-80.808" style="fill-rule:nonzero;"></path>  <path d="M818.878,943.645c-21.289,12.473 -44.011,22.773 -67.917,30.455c-0.078,0.026 -0.156,0.065 -0.234,0.091l-0,152.201c0.078,-0.013 0.156,-0.039 0.234,-0.052c23.32,-5.117 45.963,-11.979 67.917,-20.3c184.869,-70.013 316.705,-248.789 316.705,-457.89c0,-156.472 -73.815,-295.964 -188.437,-385.612l-1.654,65.247c85.625,80.013 139.154,193.919 139.154,320.365c-0,180.846 -109.492,336.028 -265.768,403.112l-0,-43.724c133.658,-64.518 226.145,-201.302 226.145,-359.388c0,-101.589 -38.177,-194.427 -100.924,-264.935l-2.331,92.292c29.649,50.69 46.667,109.674 46.667,172.643c-0,126.028 -68.151,236.067 -169.557,295.495" style="fill-rule:nonzero;"></path>  <path d="M569.572,1281.13c18.632,2.37 37.526,3.92 56.64,4.61l0,-295.807c-152.161,-8.685 -277.63,-116.719 -312.695,-260.248c-5.313,-21.732 -8.607,-44.258 -9.544,-67.396l-56.602,0l0,0.026l-39.609,0c-0,0 -0.013,-0.013 -0.013,-0.026l-51.068,0c0.651,22.904 2.969,45.378 6.68,67.396c28.997,172.227 148.19,314.18 307.213,375.443l0,42.278c-206.002,-72.382 -353.737,-268.528 -353.737,-499.27c0,-262.344 190.925,-480.039 441.406,-521.849l0,40.247c-71.523,13.008 -137.669,41.602 -194.804,82.122l47.695,29.167c44.271,-28.138 93.945,-48.555 147.109,-59.349c22.084,-4.492 44.753,-7.422 67.917,-8.45l0.052,-0l0,-51.003l-0.052,0l0,-39.648l0.052,-0l0,-53.802l-0.052,-0c-23.008,0.781 -45.664,2.929 -67.917,6.302c-279.934,42.461 -495.169,284.674 -495.169,576.263c0,260.312 171.563,481.172 407.5,555.82c19.401,6.146 39.206,11.419 59.427,15.521l0,-148.347c-20.468,-5.599 -40.286,-12.708 -59.427,-21.08c-130.846,-57.188 -228.32,-176.302 -255.403,-320.365c-0.013,-0.039 -0.013,-0.078 -0.026,-0.117l40.39,-0c0.013,0.039 0.013,0.078 0.026,0.117c29.805,142.982 136.289,258.138 274.44,300.208c12.93,3.933 26.159,7.214 39.61,9.831l-0,226.302c-0,0.3 -0.039,14.818 -0.039,15.104" style="fill-rule:nonzero;"></path>  <path d="M689.555,851.892c-4.675,-0 -8.464,-5.899 -8.464,-13.177c0,-7.266 3.789,-13.164 8.464,-13.164c4.674,-0 8.463,5.898 8.463,13.164c0,7.278 -3.789,13.177 -8.463,13.177m-43.243,48.919l-19.401,-19.049l38.803,-0l-19.402,19.049Zm-44.57,-48.919c-4.674,-0 -8.463,-5.899 -8.463,-13.177c-0,-7.266 3.789,-13.164 8.463,-13.164c4.675,-0 8.464,5.898 8.464,13.164c-0,7.278 -3.789,13.177 -8.464,13.177m317.318,-329.792l-14.492,-31.393l17.044,9.844l5.729,-226.393l-160.703,98.281l-5.169,-2.149c-36.641,-15.273 -75.508,-23.007 -115.495,-23.007c-39.844,-0 -78.568,7.682 -115.104,22.838l-5.156,2.136l-160.417,-98.099l5.729,226.393l15.977,-9.232l-14.375,31.315c-18.099,39.427 -27.279,81.576 -27.279,125.261c-0,165.755 134.857,300.612 300.625,300.612c165.755,-0 300.612,-134.857 300.612,-300.612c-0,-43.894 -9.271,-86.211 -27.526,-125.795" style="fill-rule:nonzero;"></path></svg>