<svg id="Livello_3" data-name="Livello 3" xmlns="http://www.w3.org/2000/svg" viewBox="0 0 432 491.61"><defs><style>.cls-1{fill:#fff;stroke:#000;stroke-miterlimit:10;stroke-width:10px;}</style></defs><path class="cls-1" d="M481.2,225.53l2.1,1.21,4.54-179.47L370.59,119a211.58,211.58,0,0,0-161.86-.12l-117-71.59,4.54,179.47,1.45-.83a210.12,210.12,0,0,0-19.15,87.92c0,116.53,94.47,211,211,211s211-94.47,211-211A210.27,210.27,0,0,0,481.2,225.53Z" transform="translate(-73.52 -38.21)"/><ellipse cx="195.86" cy="426.61" rx="3.86" ry="6"/><ellipse cx="235.86" cy="426.61" rx="3.86" ry="6"/><polygon points="216.16 454.9 225 446.22 207.32 446.22 216.16 454.9"/></svg>