<svg id="Livello_1" data-name="Livello 1" xmlns="http://www.w3.org/2000/svg" viewBox="0 0 103.11 262.11"><defs><style>.cls-1{fill:#fff;}</style></defs><path class="cls-1" d="M490.68,498.11c-2.61-1.8-3.17-4.38-3.17-7.41,0-68.29,0-76.66,0-145,0-4.39.18-3.61-3.59-5.22-19.33-8.26-30.36-23-33.11-43.7-2.24-16.81,2.51-31.82,14-44.29,21.86-23.67,58.16-21.6,77.52,4.18,19,25.33,12.73,62.14-13.57,79.23a46,46,0,0,1-12.73,5.87c-1.6.44-2.08,1.23-2.08,2.83,0,54.67,0,49.41,0,104.08,0,2,.81,2.5,2.65,2.47,6.56-.07,13.11,0,19.67-.05,2,0,2.85.59,2.74,2.69a72.67,72.67,0,0,0,0,7.81c.12,2.12-.78,2.83-2.76,2.64a26.62,26.62,0,0,0-2.68,0c-3.15,0-3.15,0-3.16,3.26,0,5.86,0,5.86,5.92,5.86,1.72,0,3.43.08,5.14,0s2.39.65,2.37,2.35c-.06,4.32-.07,8.64,0,13,0,1.83-.68,2.47-2.51,2.45-8.19-.07-16.38,0-24.57-.06-1.86,0-2.94.25-2.85,2.5s-1.52,3.45-3.17,4.56Zm42-208.41a33.49,33.49,0,0,0-.53-5.63c-3.71-22.3-29-33.54-47.64-21.18-14.12,9.35-18.66,29.62-10,44.44,8.13,13.83,23.93,19.47,38.27,13.67C524.84,316.11,532.63,304.16,532.64,289.7Z" transform="translate(-450.3 -236)"/></svg>