<?xml version="1.0" encoding="utf-8"?>
<!-- Generator: Adobe Illustrator 26.0.3, SVG Export Plug-In . SVG Version: 6.00 Build 0)  -->
<svg version="1.1" id="Livello_1" xmlns="http://www.w3.org/2000/svg" xmlns:xlink="http://www.w3.org/1999/xlink" x="0px" y="0px"
	 viewBox="0 0 696.89 170.08" style="enable-background:new 0 0 696.89 170.08;" xml:space="preserve">
<style type="text/css">
	.st0{fill:#020100;}
</style>
<g>
	<polygon class="st0" points="33.93,139.9 12.05,139.9 12.05,79.45 20.21,79.45 20.21,133.11 33.93,133.11 	"/>
	<path class="st0" d="M94.56,98.43v4.55h-0.24c-1.14-1.8-2.25-3.12-3.34-3.94c-1.09-0.82-2.52-1.23-4.28-1.23
		c-3.75,0-6.4,1.72-7.95,5.15c-1.55,3.43-2.32,9.04-2.32,16.82c0,8.76,1.03,14.4,3.08,16.91c2.05,2.51,4.42,3.77,7.1,3.77
		c3.15,0,5.72-1.87,7.71-5.6h0.24v5.03h7.78V98.43H94.56z M93.57,130.12c-0.66,2.37-1.97,3.56-3.95,3.56
		c-2.04,0-3.34-1.23-3.92-3.68c-0.58-2.45-0.87-6.6-0.87-12.45c0-4.97,0.37-8.4,1.1-10.3c0.74-1.9,2.06-2.85,3.97-2.85
		c1.91,0,3.16,1.02,3.76,3.06c0.6,2.04,0.89,5.56,0.89,10.56C94.56,123.72,94.23,127.75,93.57,130.12z"/>
	<path class="st0" d="M170.3,101.8c-1.88-2.72-4.28-4.08-7.19-4.08c-3.92,0-6.61,2.07-8.07,6.22h-0.19V77.32h-7.78v62.58h7.69v-5.74
		h0.19c1.9,4.14,4.52,6.22,7.88,6.22c3.51,0,6.1-1.43,7.78-4.29c1.68-2.86,2.51-9.04,2.51-18.53
		C173.12,109.77,172.18,104.52,170.3,101.8z M163.73,130.67c-0.76,2.07-2.04,3.11-3.84,3.11c-1.99,0-3.34-1.27-4.06-3.82
		c-0.71-2.55-1.07-6.84-1.07-12.88c0-4.46,0.38-7.7,1.14-9.73c0.76-2.02,2.02-3.04,3.8-3.04c2.09,0,3.47,1.25,4.15,3.75
		c0.68,2.5,1.02,6.69,1.02,12.57C164.87,125.25,164.49,128.6,163.73,130.67z"/>
	<polygon class="st0" points="242.92,98.43 223.57,158.26 216.78,158.26 223.57,136.2 212.32,98.43 220.09,98.43 226.91,126.96 
		227.11,126.97 235.54,98.43 	"/>
	<path class="st0" d="M302.51,104.55c-3.57,0.1-6.12,0.78-7.64,2.04c-1.52,1.27-2.28,4.08-2.28,8.45v24.86h-7.88V98.43h7.88v6.12
		h0.19c2.28-4.49,5.34-6.74,9.2-6.74l0.52,0.09V104.55z"/>
	<rect x="345.83" y="98.43" class="st0" width="7.69" height="41.47"/>
	<path class="st0" d="M405.99,98.29v3.99h0.19c1.99-3.04,4.68-4.55,8.07-4.55c6.01,0,9.01,3.27,9.01,9.82v32.36h-7.69v-30.13
		c0-4.08-1.61-6.12-4.84-6.12c-1.49,0-2.66,0.55-3.53,1.64c-0.87,1.09-1.3,2.59-1.3,4.48v30.13h-7.78V98.29H405.99z"/>
	<polygon class="st0" points="482.8,104.55 477.82,104.55 477.82,139.9 470.04,139.9 470.04,104.55 465.05,104.55 465.05,98.43 
		470.04,98.43 470.04,87.14 477.82,87.14 477.82,98.43 482.8,98.43 	"/>
	<path class="st0" d="M549.98,139.9h-7.64v-30.13c0-3.95-1.6-5.93-4.79-5.93c-3.29,0-4.93,2.2-4.93,6.59v29.46h-7.87V77.41h7.87
		v24.48c2.69-2.72,5.54-4.08,8.54-4.08c5.88,0,8.83,3.18,8.83,9.54V139.9z"/>
	<path class="st0" d="M619.48,126.8c0,4.84-0.96,8.33-2.89,10.46c-1.93,2.13-5.11,3.2-9.54,3.2c-4.43,0-7.64-1.05-9.63-3.16
		c-1.99-2.1-2.99-5.48-2.99-10.13V98.29h7.69v28.99c0,4.59,1.64,6.88,4.93,6.88c1.74,0,2.96-0.58,3.68-1.75
		c0.71-1.17,1.07-3.12,1.07-5.84V98.29h7.69V126.8z"/>
	<path class="st0" d="M683.96,105.45c-2.37-0.98-4.41-1.47-6.12-1.47c-1.65,0-2.97,0.41-3.96,1.24c-1,0.83-1.5,1.95-1.5,3.38
		c0,1.14,0.42,2.27,1.25,3.38c0.84,1.11,2.56,2.8,5.17,5.06c2.61,2.26,4.46,4.29,5.56,6.07c1.09,1.79,1.64,3.76,1.64,5.91
		c0,3.26-1.11,5.97-3.32,8.12c-2.21,2.15-5.03,3.23-8.45,3.23c-2.21,0-4.81-0.59-7.78-1.75v-6.41c2.89,1.17,5.33,1.75,7.34,1.75
		c1.49,0,2.66-0.4,3.5-1.21c0.84-0.81,1.26-1.89,1.26-3.26c0-1.27-0.56-2.61-1.68-4.04c-1.12-1.43-3.06-3.25-5.81-5.46
		c-3.95-3.2-5.93-6.87-5.93-11.02c0-3.26,1.08-5.98,3.25-8.15c2.17-2.17,4.86-3.25,8.09-3.25c1.99,0,4.49,0.52,7.5,1.57V105.45z"/>
</g>
<path class="st0" d="M363.83,48.37c-14.05,0-25.44-11.39-25.44-25.44c0-6.08,2.13-11.66,5.69-16.03
	c-10.55,3.1-18.25,12.85-18.25,24.4c0,14.05,11.39,25.44,25.44,25.44c7.97,0,15.08-3.67,19.75-9.41
	C368.73,48.01,366.32,48.37,363.83,48.37z"/>
</svg>
