<svg id="Livello_1" data-name="Livello 1" xmlns="http://www.w3.org/2000/svg" viewBox="0 0 777.22 777.22"><defs><style>.cls-1{fill:#fff;}.cls-2{fill:#e52421;}.cls-3{fill:#010101;}</style></defs><circle class="cls-1" cx="388.61" cy="388.61" r="388.39"/><path d="M395.21,16.41A379.58,379.58,0,0,1,542.92,745.54,379.58,379.58,0,0,1,247.5,46.22,377.22,377.22,0,0,1,395.21,16.41m0-8.92C180.71,7.49,6.82,181.38,6.82,395.88S180.71,784.27,395.21,784.27,783.6,610.38,783.6,395.88,609.71,7.49,395.21,7.49Z" transform="translate(-6.6 -7.27)"/><path d="M395.21,784.5A388.72,388.72,0,0,1,243.94,37.81,388.71,388.71,0,0,1,546.47,754,386.24,386.24,0,0,1,395.21,784.5Zm0-776.78C181.17,7.72,7,181.85,7,395.88S181.17,784.05,395.21,784.05,783.38,609.92,783.38,395.88,609.24,7.72,395.21,7.72Zm0,767.86A379.8,379.8,0,0,1,247.42,46,379.8,379.8,0,0,1,543,745.75,377.23,377.23,0,0,1,395.21,775.58Zm0-758.95A379.36,379.36,0,0,0,247.59,745.34,379.36,379.36,0,0,0,542.83,46.43,377,377,0,0,0,395.21,16.63Z" transform="translate(-6.6 -7.27)"/><path d="M392.14,184.74a208.51,208.51,0,0,1,84.35,17.71l34.7-21.23a243.38,243.38,0,0,0-239.34.73l34.55,21.12A208.43,208.43,0,0,1,392.14,184.74Z" transform="translate(-6.6 -7.27)"/><path d="M155,337H130.13a267.71,267.71,0,0,1,76.53-136.49l-1-40.35A298.73,298.73,0,0,0,93.19,378.54H183.4A209.22,209.22,0,0,1,209,292.78l-1.46-57.89A243.72,243.72,0,0,0,155,337Z" transform="translate(-6.6 -7.27)"/><path d="M445.75,99.65V75c153.19,25.55,270,158.68,270,319.11,0,156.79-111.51,287.52-259.55,317.23q-12,2.4-24.22,3.91V599.66h0V585.18a196,196,0,0,1-27.71,3.88v19.37l.06,29.35V750.34c191-6.42,344.34-163.74,344.34-356.23C748.59,215.79,617,67.67,445.75,41.73a356.46,356.46,0,0,0-41.5-3.84v88.33a267.83,267.83,0,0,1,130.34,40.69l29.19-17.85A297.94,297.94,0,0,0,445.75,99.65Z" transform="translate(-6.6 -7.27)"/><path d="M497.84,574.8a208.34,208.34,0,0,1-41.53,18.62l-.15.05v93.08l.15,0a295.47,295.47,0,0,0,41.53-12.41c113-42.81,193.65-152.13,193.65-280,0-95.67-45.14-181-115.22-235.79l-1,39.91a267.28,267.28,0,0,1,85.08,195.88c0,110.58-67,205.48-162.5,246.5V613.87c81.72-39.45,138.28-123.09,138.28-219.76a242.92,242.92,0,0,0-61.72-162L573,288.55A209.38,209.38,0,0,1,497.84,574.8Z" transform="translate(-6.6 -7.27)"/><path d="M345.39,781.16q17.1,2.18,34.64,2.82v-9.4h0V603.11C287,597.8,210.27,531.73,188.82,444A209.4,209.4,0,0,1,183,402.76H148.38v0H124.16v0H92.92A298.84,298.84,0,0,0,97,444c17.73,105.31,90.61,192.11,187.85,229.57V699.4c-126-44.26-216.3-164.2-216.3-305.29,0-160.41,116.75-293.53,269.9-319.1V99.63a297.93,297.93,0,0,0-119.11,50.21l29.17,17.84A268.12,268.12,0,0,1,380,126.22h0V95h0V70.79h0V37.89h0a359.38,359.38,0,0,0-41.53,3.85C167.3,67.71,35.69,215.81,35.69,394.11c0,159.17,104.9,294.22,249.17,339.87a352.71,352.71,0,0,0,36.33,9.48v-90.7A268.68,268.68,0,0,1,128.69,444a.17.17,0,0,1,0-.07h24.69s0,.05,0,.07a244.73,244.73,0,0,0,167.8,183.57,241.49,241.49,0,0,0,24.23,6V771.93C345.42,772.11,345.39,781,345.39,781.16Z" transform="translate(-6.6 -7.27)"/><polygon class="cls-2" points="383.67 565.8 383.67 565.8 383.67 211.14 383.67 211.14 383.67 565.8"/><path class="cls-1" d="M322.38,231.88l-2,.84-95.88-58.63L228,313.43l6.67-3.85L229,321.85a175.83,175.83,0,0,0-16.09,73.89c0,97.78,79.55,177.33,177.33,177.33V218.41A176.26,176.26,0,0,0,322.38,231.88Z" transform="translate(-6.6 -7.27)"/><path class="cls-3" d="M321.12,223.1,215.46,158.49l4.11,162.39,0,1A186,186,0,0,0,390.27,581.68v-8.61c-97.78,0-177.33-79.55-177.33-177.33A175.83,175.83,0,0,1,229,321.85l5.63-12.28L228,313.43l-3.52-139.35,95.88,58.64,2-.84a176.26,176.26,0,0,1,67.89-13.47V209.8A184.93,184.93,0,0,0,321.12,223.1Z" transform="translate(-6.6 -7.27)"/><path class="cls-3" d="M567.6,395.74a175.79,175.79,0,0,0-16.24-74.21l-5.68-12.31,7.28,4.21,3.52-139.35-96.05,58.75-2-.85a176.32,176.32,0,0,0-68.13-13.57V573.07C488.05,573.07,567.6,493.52,567.6,395.74Z" transform="translate(-6.6 -7.27)"/><path class="cls-3" d="M561.33,322.77l4.16-164.28L459.67,223.2a184.85,184.85,0,0,0-69.4-13.4v8.61A176.32,176.32,0,0,1,458.4,232l2,.85,96.05-58.75L553,313.43l-7.28-4.21,5.68,12.31a175.79,175.79,0,0,1,16.24,74.21c0,97.78-79.55,177.33-177.33,177.33v8.61A186,186,0,0,0,561.33,322.77Z" transform="translate(-6.6 -7.27)"/><path d="M363,518.53c-2.86,0-5.18-3.6-5.18-8s2.32-8.05,5.18-8.05,5.17,3.61,5.17,8.05S365.88,518.53,363,518.53Z" transform="translate(-6.6 -7.27)"/><path class="cls-1" d="M416.68,518.53c-2.86,0-5.17-3.6-5.17-8s2.31-8.05,5.17-8.05,5.18,3.61,5.18,8.05S419.54,518.53,416.68,518.53Z" transform="translate(-6.6 -7.27)"/><polygon class="cls-1" points="383.67 529.52 395.54 529.52 383.67 541.17 383.67 529.52"/><polygon points="383.67 529.52 371.8 529.52 383.67 541.17 383.67 529.52"/></svg>