<svg id="Livello_1" data-name="Livello 1" xmlns="http://www.w3.org/2000/svg" viewBox="0 0 229.84 80.85"><defs><style>.cls-1{fill:#1d1d1b;}</style></defs><path class="cls-1" d="M29.07,61.39H27.44L20,81.31l-7.61-20c-.36,0-.82,0-1.36.07s-1.07,0-1.57,0-1.16,0-1.75,0-1.08,0-1.47-.07V62A6,6,0,0,1,8,62.23a1.27,1.27,0,0,1,.81.83A6.24,6.24,0,0,1,9.05,65v16.8a7.12,7.12,0,0,1-.21,2,1.47,1.47,0,0,1-.81,1,4.64,4.64,0,0,1-1.78.36v.7a13.73,13.73,0,0,1,1.47-.09l1.75,0,1.9,0a15.92,15.92,0,0,1,1.62.09v-.7a5.84,5.84,0,0,1-2-.36,1.55,1.55,0,0,1-.9-1,6.7,6.7,0,0,1-.22-2V63.49l8.71,22.44h.55l8.33-22.38V82.09A6.26,6.26,0,0,1,27.23,84a1.23,1.23,0,0,1-.81.83,6.73,6.73,0,0,1-1.78.27v.7c.49-.05,1.12-.08,1.9-.09l2.53,0,2.4,0c.79,0,1.46,0,2,.09v-.7a6.73,6.73,0,0,1-1.78-.27,1.26,1.26,0,0,1-.82-.83,6.69,6.69,0,0,1-.2-1.87V65a6.65,6.65,0,0,1,.2-1.89,1.3,1.3,0,0,1,.82-.83A6,6,0,0,1,33.46,62v-.69c-.53,0-1.2,0-2,.07S29.87,61.39,29.07,61.39Z" transform="translate(-6.25 -5.39)"/><path class="cls-1" d="M50.71,84.68a1.61,1.61,0,0,1-.73.18.91.91,0,0,1-.81-.38,2.24,2.24,0,0,1-.26-1.25V73.62a12.49,12.49,0,0,0-.28-2.85,3.85,3.85,0,0,0-1.17-2,4.28,4.28,0,0,0-1.66-1,7.82,7.82,0,0,0-2.42-.33,9.3,9.3,0,0,0-2.85.4,7.33,7.33,0,0,0-2.06.95,5.76,5.76,0,0,0-1.14,1,2.25,2.25,0,0,0-.45,1.46,2.32,2.32,0,0,0,.47,1.43,1.68,1.68,0,0,0,1.46.64,2.05,2.05,0,0,0,1.42-.5,1.74,1.74,0,0,0,.55-1.37,2.08,2.08,0,0,0-.48-1.41,2,2,0,0,0-1.14-.69,2.75,2.75,0,0,1,1.57-1,7.9,7.9,0,0,1,1.85-.24,4.93,4.93,0,0,1,1.63.26,2.1,2.1,0,0,1,1.15,1,4.52,4.52,0,0,1,.44,2.21V73.8a1.47,1.47,0,0,1-.71,1.27,6.87,6.87,0,0,1-1.82.85l-2.33.76a14.69,14.69,0,0,0-2.33,1,5.28,5.28,0,0,0-1.82,1.55,4.15,4.15,0,0,0-.71,2.49A4.57,4.57,0,0,0,36.62,84a3.73,3.73,0,0,0,1.57,1.5,5.25,5.25,0,0,0,2.46.54,5.75,5.75,0,0,0,2.92-.76,6.56,6.56,0,0,0,2.23-2.32,3.89,3.89,0,0,0,.33,1.71,2.16,2.16,0,0,0,1,1,4.24,4.24,0,0,0,3.42,0,11.29,11.29,0,0,0,1.39-.91l-.38-.59A5.31,5.31,0,0,1,50.71,84.68ZM45.8,82A6.27,6.27,0,0,1,44,84a3.77,3.77,0,0,1-2.13.66,2.58,2.58,0,0,1-2-.83,3.19,3.19,0,0,1-.74-2.22,4.06,4.06,0,0,1,.55-2.24,4.35,4.35,0,0,1,1.4-1.4A12.57,12.57,0,0,1,42.86,77c.62-.26,1.2-.53,1.73-.79a3.28,3.28,0,0,0,1.21-1Z" transform="translate(-6.25 -5.39)"/><path class="cls-1" d="M68.65,82V67.57a9.91,9.91,0,0,1-1.68.37,14.77,14.77,0,0,1-1.92.12c-.69,0-1.41,0-2.14-.11v.73a2.46,2.46,0,0,1,2.07.74,3.86,3.86,0,0,1,.55,2.3v7.16a8.12,8.12,0,0,1-.6,3.18,5.56,5.56,0,0,1-1.66,2.24,3.73,3.73,0,0,1-2.4.83,2.47,2.47,0,0,1-1.8-.55,2.51,2.51,0,0,1-.69-1.45,13.32,13.32,0,0,1-.14-2V67.57a9.91,9.91,0,0,1-1.68.37,14.72,14.72,0,0,1-1.91.12c-.7,0-1.41,0-2.15-.11v.73a2.47,2.47,0,0,1,2.08.74,3.86,3.86,0,0,1,.55,2.3V80.4a13.17,13.17,0,0,0,.24,2.73,3.66,3.66,0,0,0,.9,1.8,4,4,0,0,0,1.49,1,5.87,5.87,0,0,0,2.11.35,6.22,6.22,0,0,0,3.23-.95,6.06,6.06,0,0,0,2.43-3.2v4.08a7.66,7.66,0,0,1,1.68-.38,16.88,16.88,0,0,1,1.92-.1c.71,0,1.43,0,2.14.1v-.73a2.42,2.42,0,0,1-2-.74A3.76,3.76,0,0,1,68.65,82Z" transform="translate(-6.25 -5.39)"/><path class="cls-1" d="M85.43,67.85a3.45,3.45,0,0,0-1.64-.38,3.84,3.84,0,0,0-2.22.69,6.62,6.62,0,0,0-1.71,1.71,10,10,0,0,0-1.09,2V67.57a9.58,9.58,0,0,1-1.67.37,14.77,14.77,0,0,1-1.92.12c-.69,0-1.41,0-2.14-.11v.73a2.46,2.46,0,0,1,2.07.74,3.86,3.86,0,0,1,.55,2.3V82.54a2.53,2.53,0,0,1-.6,2A3.1,3.1,0,0,1,73,85v.73l1.74-.09c.77,0,1.55,0,2.33,0,1.09,0,2.11,0,3.08,0l2.25.09V85a5.36,5.36,0,0,1-2.68-.57,2.39,2.39,0,0,1-1-2.26V74.87a7.09,7.09,0,0,1,.35-2.09,8.9,8.9,0,0,1,1-2.13A5.44,5.44,0,0,1,81.61,69a3.29,3.29,0,0,1,2-.64.82.82,0,0,1,.72.34,3.18,3.18,0,0,0-.81.75,1.77,1.77,0,0,0-.36,1.12,1.63,1.63,0,0,0,.55,1.33,2,2,0,0,0,1.28.47,1.77,1.77,0,0,0,1.44-.66,2.36,2.36,0,0,0,.53-1.52,2.42,2.42,0,0,0-.4-1.37A2.92,2.92,0,0,0,85.43,67.85Z" transform="translate(-6.25 -5.39)"/><path class="cls-1" d="M100.17,68.44a8.59,8.59,0,0,0-7.93,0,6.89,6.89,0,0,0-2.84,3,11.94,11.94,0,0,0-1.05,5.39,11.87,11.87,0,0,0,1.05,5.38,6.89,6.89,0,0,0,2.84,3,8.59,8.59,0,0,0,7.93,0,6.85,6.85,0,0,0,2.82-3A11.87,11.87,0,0,0,104,76.87,11.94,11.94,0,0,0,103,71.48,6.85,6.85,0,0,0,100.17,68.44Zm-.74,15.09a3.6,3.6,0,0,1-6.47,0q-1.26-2-1.26-6.66T93,70.2a3.59,3.59,0,0,1,6.47,0q1.26,2,1.26,6.67T99.43,83.53Z" transform="translate(-6.25 -5.39)"/><path class="cls-1" d="M133,61.28c-1.06,0-2.27.08-3.62.09l-3.61,0h-2l-2.58,0-2.8,0c-.94,0-1.84,0-2.69,0V62a6.16,6.16,0,0,1,1.78.26,1.31,1.31,0,0,1,.81.83,6.24,6.24,0,0,1,.21,1.89V82.09a6.26,6.26,0,0,1-.21,1.87,1.27,1.27,0,0,1-.81.83,6.88,6.88,0,0,1-1.78.27v.7c.48-.05,1.11-.08,1.9-.09l2.52,0,2.8,0q1.38,0,2.28.09v-.7a10.45,10.45,0,0,1-2.21-.27,1.44,1.44,0,0,1-1-.83,5.21,5.21,0,0,1-.26-1.87v-8h2.52a2.91,2.91,0,0,1,2.16.67,3.23,3.23,0,0,1,.83,1.73q.19,1.06.33,2.16h.8c-.09-1.31-.15-2.31-.17-3s0-1.33,0-1.9,0-1.21,0-1.91,0-1.69.12-3h-.79c-.07.41-.14.88-.21,1.4a6.35,6.35,0,0,1-.38,1.5A2.68,2.68,0,0,1,126,73a2.83,2.83,0,0,1-1.75.47h-2.52V65a6.24,6.24,0,0,1,.21-1.89,1.19,1.19,0,0,1,.81-.79,6.18,6.18,0,0,1,1.78-.19h2.18a6.36,6.36,0,0,1,3.21.62,3.36,3.36,0,0,1,1.46,2,22.18,22.18,0,0,1,.65,3.82h.8c0-.37-.05-.79-.07-1.28s0-1,0-1.55,0-1.07.06-1.89S132.88,62.16,133,61.28Z" transform="translate(-6.25 -5.39)"/><path class="cls-1" d="M149.43,84.68a1.55,1.55,0,0,1-.73.18.91.91,0,0,1-.81-.38,2.33,2.33,0,0,1-.26-1.25V73.62a12.49,12.49,0,0,0-.28-2.85,3.85,3.85,0,0,0-1.17-2,4.28,4.28,0,0,0-1.66-1,7.78,7.78,0,0,0-2.42-.33,9.3,9.3,0,0,0-2.85.4,7.47,7.47,0,0,0-2.06.95,5.76,5.76,0,0,0-1.14,1,2.25,2.25,0,0,0-.45,1.46,2.38,2.38,0,0,0,.47,1.43,1.69,1.69,0,0,0,1.47.64,2,2,0,0,0,1.41-.5,1.75,1.75,0,0,0,.56-1.37,2.08,2.08,0,0,0-1.63-2.1,2.78,2.78,0,0,1,1.58-1,7.77,7.77,0,0,1,1.85-.24,4.87,4.87,0,0,1,1.62.26,2.16,2.16,0,0,1,1.16,1,4.53,4.53,0,0,1,.43,2.21V73.8a1.47,1.47,0,0,1-.71,1.27,6.94,6.94,0,0,1-1.81.85l-2.34.76a15.53,15.53,0,0,0-2.33,1,5.25,5.25,0,0,0-1.81,1.55,4.08,4.08,0,0,0-.71,2.49,4.56,4.56,0,0,0,.53,2.25,3.7,3.7,0,0,0,1.58,1.5,5.21,5.21,0,0,0,2.45.54,5.73,5.73,0,0,0,2.92-.76,6.39,6.39,0,0,0,2.23-2.32,3.89,3.89,0,0,0,.33,1.71,2.25,2.25,0,0,0,1,1,4.26,4.26,0,0,0,3.43,0,12,12,0,0,0,1.38-.91l-.38-.59A4.88,4.88,0,0,1,149.43,84.68ZM144.52,82a6.15,6.15,0,0,1-1.78,2,3.77,3.77,0,0,1-2.13.66,2.59,2.59,0,0,1-2-.83,3.23,3.23,0,0,1-.74-2.22,4.06,4.06,0,0,1,.55-2.24,4.45,4.45,0,0,1,1.4-1.4,13.14,13.14,0,0,1,1.78-.94c.62-.26,1.2-.53,1.73-.79a3.28,3.28,0,0,0,1.21-1Z" transform="translate(-6.25 -5.39)"/><path class="cls-1" d="M157.17,82.54V58.65a8.92,8.92,0,0,1-1.67.37,14.88,14.88,0,0,1-1.92.12c-.69,0-1.41,0-2.15-.11v.73a2.47,2.47,0,0,1,2.08.74,3.88,3.88,0,0,1,.55,2.3V82.54a2.53,2.53,0,0,1-.6,2,3.11,3.11,0,0,1-2,.52v.73c.4,0,1-.06,1.8-.09s1.6,0,2.39,0,1.6,0,2.4,0,1.39.06,1.78.09V85a3.06,3.06,0,0,1-2-.52A2.49,2.49,0,0,1,157.17,82.54Z" transform="translate(-6.25 -5.39)"/><path class="cls-1" d="M173.73,83.28A5.22,5.22,0,0,1,172,84.41a5.32,5.32,0,0,1-1.84.34,4.32,4.32,0,0,1-2.47-.77,5.35,5.35,0,0,1-1.81-2.58,13.84,13.84,0,0,1-.69-4.84,15.81,15.81,0,0,1,.45-4.1,7.71,7.71,0,0,1,1.17-2.59,4.53,4.53,0,0,1,1.59-1.36,3.93,3.93,0,0,1,1.73-.42,4.28,4.28,0,0,1,1.88.42,2.58,2.58,0,0,1,1.23,1,2,2,0,0,0-1,.63,1.81,1.81,0,0,0-.43,1.27,1.53,1.53,0,0,0,.57,1.28,2.08,2.08,0,0,0,1.33.45,1.77,1.77,0,0,0,1.31-.5,1.87,1.87,0,0,0,.52-1.43,2.81,2.81,0,0,0-.41-1.47,3.82,3.82,0,0,0-1.21-1.19,6.1,6.1,0,0,0-1.87-.83,8,8,0,0,0-2.14-.28,7.31,7.31,0,0,0-4.18,1.23,8.06,8.06,0,0,0-2.86,3.38,11.6,11.6,0,0,0-1,5,10.89,10.89,0,0,0,1,4.89,7.69,7.69,0,0,0,2.75,3.16,7,7,0,0,0,3.87,1.11,6.05,6.05,0,0,0,5.22-2.58,7.86,7.86,0,0,0,1.14-2.23l-.65-.24A6.45,6.45,0,0,1,173.73,83.28Z" transform="translate(-6.25 -5.39)"/><path class="cls-1" d="M182,63.74a2.11,2.11,0,0,0,1.55-.66,2.13,2.13,0,0,0,.66-1.56A2.25,2.25,0,0,0,182,59.31a2.13,2.13,0,0,0-1.56.66,2.11,2.11,0,0,0-.66,1.55A2.25,2.25,0,0,0,182,63.74Z" transform="translate(-6.25 -5.39)"/><path class="cls-1" d="M183.75,82.54v-15a9.58,9.58,0,0,1-1.67.37,14.77,14.77,0,0,1-1.92.12c-.69,0-1.41,0-2.14-.11v.73a2.46,2.46,0,0,1,2.07.74,3.86,3.86,0,0,1,.55,2.3V82.54a2.53,2.53,0,0,1-.6,2,3.1,3.1,0,0,1-2,.52v.73c.39,0,1-.06,1.79-.09s1.61,0,2.39,0,1.61,0,2.4,0,1.39.06,1.78.09V85a3.08,3.08,0,0,1-2-.52A2.53,2.53,0,0,1,183.75,82.54Z" transform="translate(-6.25 -5.39)"/><path class="cls-1" d="M200.59,68.44a8.59,8.59,0,0,0-7.93,0,6.84,6.84,0,0,0-2.84,3,11.94,11.94,0,0,0-1,5.39,11.87,11.87,0,0,0,1,5.38,6.84,6.84,0,0,0,2.84,3,8.59,8.59,0,0,0,7.93,0,7,7,0,0,0,2.82-3,11.87,11.87,0,0,0,1.05-5.38,11.94,11.94,0,0,0-1.05-5.39A7,7,0,0,0,200.59,68.44Zm-.74,15.09a3.6,3.6,0,0,1-6.47,0q-1.26-2-1.26-6.66t1.26-6.67a3.59,3.59,0,0,1,6.47,0q1.26,2,1.26,6.67T199.85,83.53Z" transform="translate(-6.25 -5.39)"/><path class="cls-1" d="M223.58,82.54V73.31a11.5,11.5,0,0,0-.28-2.8,4.07,4.07,0,0,0-.93-1.73,4.17,4.17,0,0,0-1.47-1,5.87,5.87,0,0,0-2.2-.35,6.73,6.73,0,0,0-3.37.92,6.07,6.07,0,0,0-2.51,3.26V67.57a9.58,9.58,0,0,1-1.67.37,14.77,14.77,0,0,1-1.92.12c-.69,0-1.41,0-2.14-.11v.73a2.46,2.46,0,0,1,2.07.74,3.86,3.86,0,0,1,.55,2.3V82.54a2.53,2.53,0,0,1-.6,2,3.08,3.08,0,0,1-2,.52v.73c.39,0,1-.06,1.79-.09s1.59,0,2.35,0,1.51,0,2.23,0l1.65.09V85a2.45,2.45,0,0,1-1.77-.52,2.82,2.82,0,0,1-.52-2V74.87a8.22,8.22,0,0,1,.61-3.2,5.38,5.38,0,0,1,1.69-2.26,4.05,4.05,0,0,1,2.54-.83,2.66,2.66,0,0,1,1.85.55,2.49,2.49,0,0,1,.78,1.45,10.11,10.11,0,0,1,.17,2v10a2.83,2.83,0,0,1-.51,2,2.45,2.45,0,0,1-1.77.52v.73l1.64-.09c.73,0,1.47,0,2.23,0s1.55,0,2.36,0,1.4.06,1.79.09V85a3.08,3.08,0,0,1-2-.52A2.53,2.53,0,0,1,223.58,82.54Z" transform="translate(-6.25 -5.39)"/><path class="cls-1" d="M234.07,84.51a2.49,2.49,0,0,1-.61-2v-15a9.7,9.7,0,0,1-1.68.37,14.72,14.72,0,0,1-1.91.12c-.7,0-1.41,0-2.15-.11v.73a2.47,2.47,0,0,1,2.08.74,3.86,3.86,0,0,1,.55,2.3V82.54a2.53,2.53,0,0,1-.6,2,3.11,3.11,0,0,1-2,.52v.73q.59,0,1.8-.09c.81,0,1.6,0,2.39,0s1.6,0,2.4,0,1.39.06,1.78.09V85A3.06,3.06,0,0,1,234.07,84.51Z" transform="translate(-6.25 -5.39)"/><path class="cls-1" d="M231.66,63.74a2.25,2.25,0,0,0,2.22-2.22,2.11,2.11,0,0,0-.66-1.55,2.13,2.13,0,0,0-1.56-.66,2.25,2.25,0,0,0-2.21,2.21,2.13,2.13,0,0,0,.66,1.56A2.11,2.11,0,0,0,231.66,63.74Z" transform="translate(-6.25 -5.39)"/><path class="cls-1" d="M141.06,35.14c.71.33,1.63,0,2.42,0,1.3-.05,4,.37,4-1s-1.72-.55-2.36-.61-.88-.59-1.54-.49a1.3,1.3,0,0,0-.22-.77c-1.56-.37-3.2.23-3.08,1.7A1.54,1.54,0,0,0,141.06,35.14Z" transform="translate(-6.25 -5.39)"/><path class="cls-1" d="M139,35.09a2.7,2.7,0,0,0-2.31.6c.21.5.55,1.19,1.32,1.27.23,0,.6-.16,1.1-.22s1,0,1-.55-.34-.39-.71-.66C139.26,35.41,139.17,35.16,139,35.09Z" transform="translate(-6.25 -5.39)"/><path class="cls-1" d="M130.45,19c-.73.24-.76,1.17-.55,2a15.45,15.45,0,0,1,.77,2c.09.6,0,1.17,0,1.7.08,1,.39,2.07,1.15,2.31a2.83,2.83,0,0,0,2.48-.66c.78-.64,1.07-1.9,1.92-2.26s1.65-.3,2.31-.65a3.75,3.75,0,0,0,1.32-1.27,2.76,2.76,0,0,0-1.43-3.79,4.14,4.14,0,0,0-1.32-.11c-1.34.12-2.24,1-3.57,1.15S131.35,18.68,130.45,19Z" transform="translate(-6.25 -5.39)"/><path class="cls-1" d="M137.32,33.77c.69-.44,1.68-1.35,1.65-2.2,0-1.22-1.84-2-2.91-2.26s-2.15.3-3.08.22-1.75-.63-3.13-.44a2.4,2.4,0,0,0-1.65.77c-.54.74-.22,2.1-.55,3.19-.14.45-.49.89-.5,1.21s.21.5.28.83c.15.75,0,1.38.49,1.65a3.33,3.33,0,0,0,1.93,0c1.46-.43,2.2-1.8,3.84-2,.45,0,.88,0,1.32-.06A7.73,7.73,0,0,0,137.32,33.77Z" transform="translate(-6.25 -5.39)"/><path class="cls-1" d="M120.22,13.59c0,.59.53.8.83,1.1.63,1.42,2.35,1.63,4.45,1.76a18,18,0,0,0,2.37-.17c.53,0,1.13.09,1.75.06a9.68,9.68,0,0,0,3.3-1c.93-.37,2.32-1.06,2.31-2,0-1.15-1.91-1.85-3.08-2.25a11.06,11.06,0,0,0-4.56-.83c-1.37.08-1.78.9-2.69,1.43a5.32,5.32,0,0,1-1.65.61C122,12.52,120.23,12.49,120.22,13.59Z" transform="translate(-6.25 -5.39)"/><path class="cls-1" d="M122.37,36.08c1.29,1.08,2.93,2.32,4.4,3.51.34.28,1,1.14,1.59,1.1a.83.83,0,0,0,.66-.77c0-.38-1.09-1-1.37-1.26-1.61-1.25-3.07-2.37-4.51-3.57,2.08-3.1,5.15-5.24,4.78-10.67-.35-5.24-4.87-7.76-10-8.8-5.48-1.11-11.76.3-15.89,2.15,1.82.58,3.22,1.58,3.58,3.63-2.37.93-5.34-.65-6.38-2.2.87-.55,1.85-1,2.75-1.49A6.23,6.23,0,0,1,98,12.88a9.13,9.13,0,0,0,1.26,6.37c-2.18,1.59-4.71,4-4.89,7.48a5.75,5.75,0,0,0,4.18,5.88c1.75.57,3.89.1,5.44,1.1,1.18.76,1.65,2.33,1.82,4a7.72,7.72,0,0,0,.66,3.07,5.57,5.57,0,0,0,4.56,3c2,.17,3.12-.7,4.4-1.48A33.68,33.68,0,0,0,122.37,36.08ZM106,21.62c.66.43,1.58,1.27,2.41,1.92.22.17.81.44.83.6s-.58.57-.77.78c-1.21-1.05-2.48-2-3.74-3C104.92,21.78,105.81,21.93,106,21.62Zm2.08,8.3c-1.15.09-2.88-.25-2.91-1.21s1.14-1.11,2-1.21,3,.13,3,1.15C110.24,29.51,108.86,29.86,108.07,29.92Zm.83-4.67c.17-.33.5-.5.66-.83q6.78,5.32,13.52,10.67a3.18,3.18,0,0,1-.82.93C117.84,32.39,113.36,28.83,108.9,25.25Z" transform="translate(-6.25 -5.39)"/><path class="cls-1" d="M106.75,12.88c.31,1.27,1.55.82,3,.82a9.83,9.83,0,0,0,2.37,0c.78-.22,1.16-.79,1.87-1.21a4.92,4.92,0,0,1,2.36-.71c.56,0,1.11,0,1.81,0,1.7-.11,3.8-.74,3.8-2s-1.2-1.22-2.09-1.54a6.54,6.54,0,0,1-1.54-.82c-1.23-.9-1.72-2.31-3.79-1.93-1.52.28-1.38,1.55-3,2.15-1.12.42-3.07-.12-4,.66a2.86,2.86,0,0,0-.77,1.76c0,.51.13,1.06.11,1.65S106.64,12.42,106.75,12.88Z" transform="translate(-6.25 -5.39)"/></svg>