<svg id="Livello_2" data-name="Livello 2" xmlns="http://www.w3.org/2000/svg" viewBox="0 0 234.86 252.41"><defs><style>.cls-1{fill:#020000;}</style></defs><path class="cls-1" d="M282,416.83a126.65,126.65,0,0,1-126.5-126.5,125.35,125.35,0,0,1,25.71-76.45A127.41,127.41,0,0,1,246.28,169l15.44-4.54-10.15,12.49A116.53,116.53,0,0,0,374.94,362.1l15.44-4.54-10.15,12.49A126.06,126.06,0,0,1,282,416.83ZM234.28,184A116.51,116.51,0,0,0,282,406.83a116,116,0,0,0,79.71-31.54A126.5,126.5,0,0,1,234.28,184Z" transform="translate(-155.52 -164.42)"/></svg>