<?xml version="1.0" encoding="utf-8"?>
<!-- Generator: Adobe Illustrator 26.0.3, SVG Export Plug-In . SVG Version: 6.00 Build 0)  -->
<svg version="1.1" id="Livello_2_00000071517269951687428220000002189365127007783350_"
	 xmlns="http://www.w3.org/2000/svg" xmlns:xlink="http://www.w3.org/1999/xlink" x="0px" y="0px" viewBox="0 0 234.9 252.4"
	 style="enable-background:new 0 0 234.9 252.4;" xml:space="preserve">
<style type="text/css">
	.st0{fill:#FFFFFF;}
</style>
<path class="st0" d="M126.5,252.4C56.7,252.3,0.1,195.7,0,125.9c-0.1-27.6,9-54.5,25.7-76.4C42.1,28,64.9,12.3,90.8,4.6L106.2,0
	L96.1,12.5c-40.5,50-32.8,123.4,17.2,163.9c29.7,24.1,69.4,32,106.1,21.3l15.4-4.5l-10.1,12.5C200.7,235.3,164.6,252.5,126.5,252.4z
	 M78.8,19.6c-58.7,26.3-85,95.3-58.7,154c18.8,41.9,60.5,68.9,106.4,68.9c29.6,0,58.1-11.2,79.7-31.5
	c-69,10.9-133.8-36.2-144.7-105.2C56.8,75.8,62.9,45.3,78.8,19.6z"/>
</svg>
