<svg id="Livello_1" data-name="Livello 1" xmlns="http://www.w3.org/2000/svg" viewBox="0 0 991.76 991.76"><path d="M913,277.94h58V258.57H893V297H754.21V238.8h19.15V277h58.82v-18.7h-38V158.84H891.9V80.19H873.1v57.94H694.85V79.63h78.72V0H753.74V58.84H694.23V0H674.39V158.17h98.39v59.31h-19V179.15h-19.6v38.53H714.54V178.87H654.83V60.44h-78.9V78.87h58.21v59.75H496.79v99h57.83v20.08h-58v78.65H515.3V278h59.15V218.75H516.34V159.21H634.21V198h59.5v19.76H615.23V179.29H536.5v18.52h57.74v99.43H536.09v59H476.33V198.89H357.49V139.68h-20V277H179.13V218.46h97.62V198.87H179V159.51H159v38.61H80.05v19.61H158.1v59.75H119.92v19.6h77.65v19.61H99.78V258.11h38.13v-19.6H20.64V218.45H58.77v-20.1H0v119H20.08v-58.9H79.87v79H118.4v98.2H60.28V377.35H79.62v38.58H98.34V356.56H59V278.65H40.44V455.22h98.79V337.86H199v38.21h19.58V298h18.89v98.06H177.91V357.82H159.69v57.89h98.62V297H435.42V238.78h-58v19h38.45V277h-58V218.72h98.73V376.19h99V318.11H693.78v58.23H674V337.88H576.12v117.6h57.69V377.61H614.62V436H595.56V357.63h59.51V396h59.29v-38.1h98.36v58.09H754.43V396.4h38.15V377.52H734.77v59H872.21v78.57H852.34V457H694.8v19h59.35v58.84h19.62V476.81h59.77v58.94H872v19.17H813V496.47H793.39v59.4H754.47v97.74h59.07V615.5h18.83v58.09h-99V635.67H714.81v117.1h19.4v-57.9H794v98.88h39.48v38.64H853.1V794.17h59.75v77.68h18.68V773.33H814V694.7h19.35v58.4h98.95V694.23h59.45V674.39H913v58.69H853.66V615.14H971.18V556.32H952.61v38.23H793.83v39.62H774.05V575.7H931.38V555.77h-38V535.55h98.43V515.71H892.67V416.89H833.79V357.66h18.79V396.1h98.86v79.38h-19v-58H913.11V495h58.13V377.27H873.08V337.8H714.22V258.54H635.59v18.78h57.9v19.57h-78V238.51h118V317H892.32v40h99.44V337.2H913Z"/><path d="M336.85,832.59H298V774.17h19.84v39.34h39.5v78.42h78.13V872.62h-58.1V774.2h59.52v38.28h18.3V753.37H377.52V695H436v19.29H397.67v18.87h57.54V675.21H356.62V792.93H337.77V655.22h138.9v77.87h97.92V674.35H536.24V654.26h39V615.58H635v58h18.88V555.29H594.49v-38.8H535.2v39.32H457.1v18.7h98.48V536.32h20.09v39.09H634V594.6h-197V535.14h78.95V496.43h99.44v39.28h59.31v38.92h18.8V515.31H635.2V495.6h39.61V435.89h38.33V417.28H654.28v58H554.86V397.65H535.27v77.77H476.73V417.33h19.63v37.95H515V396.41H436V318.23H278.38V495h77.95V475.83h-58V337.67H416v59.45H357.72v19.61H415.8V475.6H396.47V436H337.66V376.65h58.46V357.84H318v98.42h58.18V515H218.65V495.61h38.58v-58.4h-99v78h-19.7V475.59H19.33V337.2H0V495.88H119v39h59.3V456.68h59v19.15H199.07v58.83H396.3V496.19h39.89V417h19.72v78.73h39.55v19.72H417.12V554.9H357.88v20h58.4v39.51H554.59v20.08H516.45v59.28h38.36v19.82H496.32v-78H318V713.4H257.85V675H238.24V793H139.6V734.56h18.7v38H218V655h59.39v38.46H297V575.85H317v38.08H396V595.57H337.27V556H219v18.54h58v59.77H199v39.4H99.74V615.37H157.9v19.14H119.72v19.17h58.36V615.24h79V596h-177v97.71H197.75v59.52H179V714.9H119.64V813H237.85V891.7h59V873.1H258.39V734.73h58.23V753.6H278.37v98.95h38.47v59.38H278.53v59.7H337.2v20.13H357V952.24H297.94V933h118.6v58.79h19.83V912.15H336.85Z"/><path d="M812.9,813.16H773.05V714.81H753.44v58H635.21V753.42h59.45v-139H733V496.62h-19.2v98.79H674.3v98.11H614.55V635.57H595.72v78.61h77.95v20.07H615.75v59.28H753.22v20.05H615.53v19.6h58.15v59.75H614.81v78.29h-19v-99h57.8V852.68H594.73v-98.3H476.9v58.19h77.61v-19.3h-58.1V774.19h78.81V991.76h119V972.44H635.54v-59.7H694V833.53h99v97.9h19.94v-58h19.53v78.09H773.76V853.81H714.53v78H655.37v19.94h58.69v40H733.9V873.52h20.29V971h98V852.66H812.9Z"/><path d="M139.11,139.45h59.76v39.33h98.06v59.73H199.07v18.41H317.63V119.61h59.76v58.16h98.94V118.66H614v-20H555.91V39.34h98V19.76H555.38V0H535.55V99.1h-79V158H396.78V99.82H297.83v58.37H219V139.11h58V40.18H218.78V20.35H297V79H416.26V137.9h19.59V79.8h79V20.13H436.37V0H416.54V39.51h78.92V58.78H396.7V0H376.87V58.84H317.36V0h-119V59.29h59v58.92H139.3V39.67H0V59.51H39.6V98.56H59.22V60h59v98.68H0v19.84H139.11Z"/><path d="M178.1,873.45h-99v77.87H20.29V774.11H40.08v38.43H98.27v-98.7H20.41V693.76H59.72V574.94h138V555.35H60.18V534.89H98.37V516.35H39.61v158H0V733.9H78.7v59h-19V753.74H0V971.92H99.45V893.19h59.77v78h58v-19.4H178.1Z"/><path d="M932.25,0H793.41V99.83H714.86V118H853.29V59.08h38.6V40.57h-59V98.63h-19V20.54h97.78v197.2h-78V198h58.34V179.37h-78v58.77h39.57v38.79h19.59V237.64H972V178.52h19.76V158.68H952.25v59.09H933V138.85h58.78V119H932.25Z"/><path d="M476.62,951.61h78V834h-58v77.45H516V853.52h18.86v78h-59.3V832.85H416.23V794.23H397.35V853h58.86V991.76h99.17V971.69H476.62Z"/><path d="M217.85,833.72H40.5v97.89H59.62v-78H198.69v78.71H238v59.43h19.84V912.15h-40Z"/><path d="M971.14,794h-19v97.94H892V814H872.75V991.76h19.83v-80h78.56Z"/><path d="M159,98.36h78.41V79.26H178.52V0H0V19.84H159Z"/><path d="M873.7,713.3h19.17V654.56h98.89V634.72H873.7Z"/><path d="M991.76,19.84V0H952.09V99.18h39.67V79.34H972.57V59.51h19.19V39.67H972.57V19.84Z"/><path d="M19.12,515.71H0V654.56H19.12Z"/><path d="M98.22,80.1H79.06V119H0v19.84H98.22Z"/><path d="M912.42,991.76h19.83v-39h19.84v39h19.83V933h-59.5Z"/><path d="M971.4,714.74H952.88v58.83h38.88V753.74H971.4Z"/><path d="M119,991.76h19.84V913.14H119Z"/><path d="M933,317.36h58.78V297.53H933Z"/><path d="M357,0H337.2V38.94H357Z"/><path d="M733.9,0H714.06V38.94H733.9Z"/><path d="M376.87,991.76H396.7v-39H376.87Z"/><path d="M19.12,79.34H0V99.18H19.12Z"/></svg>