<svg id="Livello_1" data-name="Livello 1" xmlns="http://www.w3.org/2000/svg" viewBox="0 0 380 380"><polygon points="95.03 380 120.58 380 189.75 310.83 258.91 380 284.46 380 189.75 285.28 95.03 380"/><polygon points="47.29 380 69.48 380 189.75 259.74 310.01 380 332.2 380 189.75 237.54 47.29 380"/><polygon points="145.11 380 171.68 380 189.75 361.93 207.81 380 234.38 380 189.75 335.36 145.11 380"/><path d="M379.94,21.8l.06.06V0H357.64L365,7.37,352.23,20.14,332.09,0H309.9l31.23,31.24L328.36,44l-44-44H258.8l56.78,56.79L303.32,69.05l-69-69H207.7l58.69,58.7L290,82.34,277.26,95.11,240.84,58.7,189.75,7.6l-51.1,51.1L102.23,95.11,89.46,82.33,113.1,58.7,171.79,0H145.22l-69,69.05L63.91,56.79,120.69,0H95.15l-44,44L38.36,31.24,69.6,0H47.4L27.26,20.14,14.49,7.36,21.85,0H0V22.25L138.65,160.89l36.61,36.61-12.55,12.55L0,47.33V69.52L151.62,221.14l-12.78,12.78L0,95.07v25.55L126.07,246.69,113.81,259,0,145.15v26.57l76.65,76.65,23.87,23.87L87.74,285,51.1,248.37,0,197.27v25.55l75,75L62.2,310.57,0,248.37v25.55l49.42,49.42L36.65,336.11,0,299.47V325l23.88,23.89L0,372.76V380H21.74l168-168,168,168H380v-7.74l-.29.29-23.89-23.89,23.89-23.88.29.29V299.55l-.29-.29L343.06,335.9l-12.77-12.77,49.42-49.42.29.29V248.45l-.29-.29-62.2,62.19-12.77-12.77,75-75,.29.29V197.35l-.29-.29-51.1,51.1L292,284.8,279.19,272l23.87-23.87,76.65-76.65.29.29V145.23l-.29-.29L265.9,258.74l-12.26-12.26L379.71,120.41l.29.29V95.16l-.29-.3L240.86,233.71l-12.77-12.78L379.71,69.31l.29.3V47.41l-.29-.29L217,209.83l-12.54-12.54,36.39-36.4ZM127.78,120.66,115,107.88l74.74-74.73,74.73,74.74-12.77,12.77-62-62Zm62,62L166.09,159l23.66-23.65L213.4,159Zm36.41-36.41-36.41-36.42-36.42,36.42-12.77-12.78,49.19-49.18,49.19,49.19Z"/></svg>