<?xml version="1.0" encoding="utf-8"?>
<!-- Generator: Adobe Illustrator 26.0.3, SVG Export Plug-In . SVG Version: 6.00 Build 0)  -->
<svg version="1.1" xmlns="http://www.w3.org/2000/svg" xmlns:xlink="http://www.w3.org/1999/xlink" x="0px" y="0px"
	 viewBox="0 0 459.47 173.37" style="enable-background:new 0 0 459.47 173.37;" xml:space="preserve">
<style type="text/css">
	.st0{display:none;}
	.st1{display:inline;fill:#D83541;}
	.st2{fill:#00B0DB;}
	.st3{fill:#007AA9;}
</style>
<g id="Livello_2" class="st0">
	<rect x="-12.37" y="-14.42" class="st1" width="480.32" height="198.95"/>
</g>
<g id="Livello_3">
	<path class="st2" d="M35.24,125.6c0.07,1.8,0.35,3.25,0.85,4.35s1.03,2.05,1.6,2.85c0.57,0.8,1.08,1.57,1.55,2.3
		c0.47,0.73,0.7,1.6,0.7,2.6c0,1.67-0.57,3.07-1.7,4.2c-1.13,1.13-2.43,1.7-3.9,1.7c-2.4,0-4.53-0.93-6.4-2.8
		c-1.87-1.87-3.47-4.28-4.8-7.25c-1.33-2.97-2.45-6.28-3.35-9.95c-0.9-3.67-1.62-7.27-2.15-10.8c-0.53-3.53-0.92-6.82-1.15-9.85
		c-0.23-3.03-0.35-5.42-0.35-7.15c0-1.27,0.05-2.88,0.15-4.85c0.1-1.97,0.28-4.07,0.55-6.3c0.27-2.23,0.67-4.45,1.2-6.65
		c0.53-2.2,1.23-4.2,2.1-6c0.87-1.8,1.92-3.25,3.15-4.35c1.23-1.1,2.75-1.65,4.55-1.65c1.53,0,2.8,0.23,3.8,0.7
		c1,0.47,1.82,1.12,2.45,1.95c0.63,0.83,1.1,1.82,1.4,2.95c0.3,1.13,0.52,2.33,0.65,3.6c1.4-1.13,2.78-2.23,4.15-3.3
		c1.37-1.07,2.8-2.02,4.3-2.85c1.5-0.83,3.08-1.5,4.75-2c1.67-0.5,3.43-0.75,5.3-0.75c2.73,0,5.12,0.57,7.15,1.7
		c2.03,1.13,3.7,2.63,5,4.5c1.3,1.87,2.27,3.98,2.9,6.35c0.63,2.37,0.95,4.78,0.95,7.25c0,4.33-1.02,8.77-3.05,13.3
		c-2.03,4.53-4.7,8.68-8,12.45c-3.3,3.77-7.08,6.92-11.35,9.45C43.97,123.83,39.64,125.27,35.24,125.6z M35.44,111.2
		c1.47-0.8,3-1.8,4.6-3c1.6-1.2,3.15-2.57,4.65-4.1c1.5-1.53,2.88-3.17,4.15-4.9c1.27-1.73,2.37-3.53,3.3-5.4
		c1.67-3.27,2.45-5.93,2.35-8c-0.1-2.07-0.72-3.33-1.85-3.8c-1.13-0.47-2.63-0.05-4.5,1.25c-1.87,1.3-3.73,3.68-5.6,7.15
		c-0.93,1.73-1.78,3.55-2.55,5.45c-0.77,1.9-1.45,3.78-2.05,5.65c-0.6,1.87-1.12,3.63-1.55,5.3
		C35.95,108.47,35.64,109.94,35.44,111.2z"/>
	<path class="st2" d="M108.64,105.4c0,2.53-0.47,5.48-1.4,8.85c-0.93,3.37-2.27,6.57-4,9.6c-1.73,3.03-3.83,5.6-6.3,7.7
		c-2.47,2.1-5.23,3.15-8.3,3.15c-2.33,0-4.33-0.48-6-1.45c-1.67-0.97-3.1-2.25-4.3-3.85c-2-2.6-3.32-5.62-3.95-9.05
		c-0.63-3.43-0.8-6.9-0.5-10.4s1-6.92,2.1-10.25c1.1-3.33,2.38-6.2,3.85-8.6c1.6-2.6,3.62-4.55,6.05-5.85
		c2.43-1.3,4.92-1.95,7.45-1.95c2.53,0,4.93,0.67,7.2,2c2.27,1.33,4.1,3.37,5.5,6.1c1.07,2.13,1.77,4.43,2.1,6.9
		C108.47,100.77,108.64,103.14,108.64,105.4z M98.14,106.7c0-3.2-0.25-5.58-0.75-7.15c-0.5-1.57-1.13-2.52-1.9-2.85
		c-0.77-0.33-1.6-0.1-2.5,0.7c-0.9,0.8-1.73,1.93-2.5,3.4c-0.77,1.47-1.4,3.2-1.9,5.2s-0.75,4.07-0.75,6.2
		c0,3.07,0.25,5.28,0.75,6.65c0.5,1.37,1.13,2.12,1.9,2.25c0.77,0.13,1.6-0.23,2.5-1.1c0.9-0.87,1.73-2,2.5-3.4
		c0.77-1.4,1.4-2.98,1.9-4.75C97.89,110.08,98.14,108.37,98.14,106.7z"/>
	<path class="st2" d="M129.33,125.4c0.13,2.87,0.28,5.77,0.45,8.7c0.17,2.93,0.25,5.8,0.25,8.6c0,1.2-0.02,2.42-0.05,3.65
		c-0.03,1.23-0.23,2.35-0.6,3.35c-0.37,1-0.95,1.82-1.75,2.45c-0.8,0.63-1.97,0.95-3.5,0.95c-1.67,0-3.03-1.12-4.1-3.35
		c-1.07-2.23-1.93-5.08-2.6-8.55c-0.67-3.47-1.13-7.3-1.4-11.5c-0.27-4.2-0.45-8.23-0.55-12.1c-0.1-3.87-0.13-7.35-0.1-10.45
		c0.03-3.1,0.05-5.32,0.05-6.65c0-0.87-0.18-1.6-0.55-2.2c-0.37-0.6-0.75-1.2-1.15-1.8c-0.4-0.6-0.78-1.25-1.15-1.95
		c-0.37-0.7-0.55-1.62-0.55-2.75c0-1.93,0.62-3.65,1.85-5.15c1.23-1.5,2.75-2.78,4.55-3.85c1.8-1.07,3.73-1.87,5.8-2.4
		c2.07-0.53,3.9-0.8,5.5-0.8c2.87,0,5.65,0.52,8.35,1.55c2.7,1.03,5.08,2.45,7.15,4.25c2.07,1.8,3.72,3.95,4.95,6.45
		c1.23,2.5,1.85,5.25,1.85,8.25c0,3.73-0.7,6.85-2.1,9.35s-3.2,4.67-5.4,6.5c-2.2,1.83-4.63,3.47-7.3,4.9
		C134.57,122.29,131.93,123.8,129.33,125.4z M129.23,93.7c0,0.8-0.03,1.63-0.1,2.5c-0.07,0.87-0.12,1.85-0.15,2.95
		c-0.03,1.1-0.05,2.37-0.05,3.8c0,1.43,0.03,3.12,0.1,5.05c1.93,0,3.57-0.77,4.9-2.3c1.33-1.53,2-3.83,2-6.9
		c0-1.6-0.48-2.88-1.45-3.85c-0.97-0.97-2.22-1.45-3.75-1.45L129.23,93.7z"/>
	<path class="st2" d="M226.13,106.5c0.13-1.33,0.25-3.23,0.35-5.7c0.1-2.47,0.27-5.18,0.5-8.15c0.23-2.97,0.58-5.98,1.05-9.05
		c0.47-3.07,1.1-5.85,1.9-8.35c0.8-2.5,1.83-4.55,3.1-6.15c1.27-1.6,2.83-2.4,4.7-2.4c1.73,0,3.27,0.6,4.6,1.8c1.33,1.2,2,2.7,2,4.5
		c0,2.53-0.15,5.07-0.45,7.6c-0.3,2.53-0.68,5.07-1.15,7.6c-0.53,3.4-0.9,7.15-1.1,11.25c-0.2,4.1-0.38,8.2-0.55,12.3
		c-0.17,4.1-0.37,8-0.6,11.7c-0.23,3.7-0.62,6.82-1.15,9.35c-0.27,1.4-0.78,2.6-1.55,3.6c-0.77,1-1.92,1.5-3.45,1.5
		c-2.2,0-4.28-0.83-6.25-2.5c-1.97-1.67-3.87-3.78-5.7-6.35c-1.83-2.57-3.6-5.38-5.3-8.45c-1.7-3.07-3.3-6.05-4.8-8.95
		s-2.95-5.48-4.35-7.75c-1.4-2.27-2.7-3.87-3.9-4.8c-0.6,3.87-1.03,7.15-1.3,9.85c-0.27,2.7-0.53,5.27-0.8,7.7
		c-0.27,2.43-0.57,5-0.9,7.7c-0.33,2.7-0.87,5.95-1.6,9.75c-0.2,0.93-0.45,1.87-0.75,2.8c-0.3,0.93-0.7,1.77-1.2,2.5
		c-0.5,0.73-1.15,1.35-1.95,1.85c-0.8,0.5-1.73,0.75-2.8,0.75c-2.13,0-3.68-0.72-4.65-2.15c-0.97-1.43-1.45-3.08-1.45-4.95
		c0-6,0.13-11.43,0.4-16.3c0.27-4.87,0.57-9.63,0.9-14.3c0.33-4.67,0.7-9.42,1.1-14.25c0.4-4.83,0.7-10.22,0.9-16.15
		c0.07-2.47,0.75-4.57,2.05-6.3c1.3-1.73,3.25-2.6,5.85-2.6c1.53,0,3.17,0.3,4.9,0.9c0.8,0.33,1.85,1.42,3.15,3.25
		c1.3,1.83,2.7,4.07,4.2,6.7c1.5,2.63,3.07,5.5,4.7,8.6c1.63,3.1,3.18,6.1,4.65,9c1.47,2.9,2.78,5.52,3.95,7.85
		C224.55,103.64,225.47,105.37,226.13,106.5z"/>
	<path class="st2" d="M249.23,113.7c0-0.93,0-2.17,0-3.7c0-1.53,0.07-3.18,0.2-4.95c0.13-1.77,0.35-3.53,0.65-5.3
		c0.3-1.77,0.77-3.37,1.4-4.8c0.63-1.43,1.42-2.6,2.35-3.5c0.93-0.9,2.13-1.35,3.6-1.35c1.46,0,2.65,0.27,3.55,0.8
		c0.9,0.53,1.6,1.23,2.1,2.1c0.5,0.87,0.81,1.88,0.95,3.05c0.13,1.17,0.2,2.38,0.2,3.65c0,4.4-0.2,8.73-0.6,13
		c-0.4,4.27-0.6,8.6-0.6,13c0,1.73-0.5,3.28-1.5,4.65c-1,1.37-2.47,2.05-4.4,2.05c-1.87,0-3.32-0.73-4.35-2.2
		c-1.03-1.47-1.82-3.22-2.35-5.25c-0.53-2.03-0.87-4.1-1-6.2C249.3,116.65,249.23,114.97,249.23,113.7z"/>
	<path class="st2" d="M295.97,125.1c-1.13,0.33-2.28,0.68-3.44,1.05c-1.16,0.37-2.34,0.55-3.54,0.55c-2.99,0-5.62-0.82-7.88-2.45
		c-2.26-1.63-4.16-3.7-5.69-6.2c-1.53-2.5-2.68-5.2-3.44-8.1s-1.15-5.62-1.15-8.15c0-2.87,0.53-5.8,1.6-8.8
		c1.06-3,2.56-5.72,4.49-8.15c1.93-2.43,4.21-4.42,6.83-5.95c2.63-1.53,5.54-2.3,8.73-2.3c2.86,0,5.69,0.73,8.48,2.2
		c0.73-0.6,1.5-1.07,2.29-1.4c0.8-0.33,1.66-0.5,2.59-0.5c1.93,0,3.36,0.57,4.29,1.7c0.93,1.13,1.58,2.5,1.95,4.1
		c0.37,1.6,0.55,3.28,0.55,5.05c0,1.77,0,3.28,0,4.55c0,1.87-0.02,4.4-0.05,7.6c-0.03,3.2-0.13,6.7-0.3,10.5
		c-0.17,3.8-0.42,7.72-0.75,11.75c-0.33,4.03-0.78,7.85-1.35,11.45c-0.57,3.6-1.28,6.8-2.14,9.6c-0.87,2.8-1.93,4.87-3.19,6.2
		c-1.46,1.67-3.16,2.97-5.09,3.9c-1.93,0.93-3.99,1.4-6.19,1.4c-1.2,0-2.43-0.15-3.7-0.45c-1.27-0.3-2.43-0.75-3.5-1.35
		c-1.07-0.6-1.95-1.4-2.65-2.4s-1.05-2.2-1.05-3.6c0-1.47,0.27-2.58,0.8-3.35c0.53-0.77,1.22-1.37,2.05-1.8
		c0.83-0.43,1.73-0.78,2.7-1.05c0.97-0.27,1.92-0.65,2.85-1.15s1.75-1.2,2.45-2.1s1.18-2.22,1.45-3.95L295.97,125.1z M295.83,107.8
		c0.73-2.07,1.28-4.42,1.65-7.05c0.37-2.63,0.55-5.12,0.55-7.45c0-0.6-0.15-1.18-0.45-1.75c-0.3-0.57-0.68-1.05-1.15-1.45
		c-0.47-0.4-0.98-0.72-1.55-0.95c-0.57-0.23-1.08-0.35-1.55-0.35c-1.2,0-2.25,0.5-3.15,1.5c-0.9,1-1.62,2.2-2.15,3.6
		c-0.53,1.4-0.93,2.87-1.2,4.4c-0.27,1.53-0.4,2.83-0.4,3.9c0,2.13,0.3,4.15,0.9,6.05c0.6,1.9,1.37,3.3,2.3,4.2
		c0.93,0.9,1.95,1.07,3.05,0.5C293.78,112.39,294.83,110.67,295.83,107.8z"/>
	<path class="st2" d="M333.13,87.9c1.59-1,3.2-1.95,4.83-2.85c1.62-0.9,3.37-1.35,5.23-1.35c2.72,0,4.89,0.88,6.52,2.65
		c1.62,1.77,2.85,3.93,3.68,6.5c0.83,2.57,1.36,5.23,1.59,8c0.23,2.77,0.35,5.15,0.35,7.15c0,0.93,0.03,2.17,0.1,3.7
		c0.07,1.53,0.12,3.18,0.15,4.95c0.03,1.77,0,3.55-0.1,5.35c-0.1,1.8-0.32,3.4-0.65,4.8c-0.6,2.47-1.65,4.17-3.15,5.1
		c-1.5,0.93-3.32,1.4-5.45,1.4c-0.8,0-1.55-0.23-2.25-0.7c-0.7-0.47-1.3-1.1-1.8-1.9c-0.5-0.8-0.88-1.72-1.15-2.75
		c-0.27-1.03-0.33-2.12-0.2-3.25c0.2-2.47,0.38-4.92,0.55-7.35c0.17-2.43,0.28-4.82,0.35-7.15c0.07-5.6-0.32-9.28-1.15-11.05
		c-0.83-1.77-1.77-2.18-2.8-1.25c-1.03,0.93-1.93,2.95-2.7,6.05c-0.77,3.1-1.02,6.78-0.75,11.05c0.13,1.93,0.32,3.85,0.55,5.75
		c0.23,1.9,0.35,3.85,0.35,5.85c0,2.13-0.62,3.92-1.85,5.35c-1.23,1.43-2.92,2.15-5.05,2.15c-2,0-3.58-0.65-4.75-1.95
		c-1.17-1.3-1.92-2.88-2.25-4.75c-0.53-2.13-0.98-4.5-1.35-7.1c-0.37-2.6-0.65-5.3-0.85-8.1c-0.2-2.8-0.35-5.63-0.45-8.5
		c-0.1-2.87-0.15-5.63-0.15-8.3c0-1,0-2.55,0-4.65c0-2.1,0.07-4.43,0.2-7c0.13-2.57,0.37-5.18,0.71-7.85
		c0.33-2.67,0.82-5.1,1.46-7.3c0.64-2.2,1.46-4,2.47-5.4c1.01-1.4,2.25-2.1,3.73-2.1c1.61,0,2.87,0.5,3.77,1.5s1.58,2.32,2.01,3.95
		c0.43,1.63,0.7,3.45,0.8,5.45c0.1,2,0.1,4,0,6c-0.1,2-0.22,3.87-0.35,5.6C333.2,85.33,333.13,86.77,333.13,87.9z"/>
	<path class="st2" d="M370.13,91.9c0.2-1.13,0.43-2.58,0.7-4.35c0.27-1.77,0.6-3.63,1-5.6c0.4-1.97,0.87-3.97,1.4-6
		c0.53-2.03,1.2-3.85,2-5.45c0.8-1.6,1.75-2.92,2.85-3.95c1.1-1.03,2.42-1.55,3.95-1.55c1.53,0,2.75,0.18,3.65,0.55
		c0.9,0.37,1.6,0.88,2.1,1.55c0.5,0.67,0.83,1.48,1,2.45c0.17,0.97,0.25,2.05,0.25,3.25c0,2.87-0.08,6-0.25,9.4
		c-0.17,3.4-0.35,6.6-0.55,9.6c1.07,0.13,2.27,0.23,3.6,0.3c1.33,0.07,2.6,0.25,3.8,0.55c1.2,0.3,2.22,0.83,3.05,1.6
		c0.83,0.77,1.25,1.88,1.25,3.35c0,1.4-0.43,2.48-1.3,3.25c-0.87,0.77-1.93,1.32-3.2,1.65c-1.27,0.33-2.57,0.53-3.9,0.6
		c-1.33,0.07-2.47,0.13-3.4,0.2c-0.2,1.2-0.33,2.73-0.4,4.6c-0.07,1.87-0.02,3.75,0.15,5.65c0.17,1.9,0.52,3.63,1.05,5.2
		c0.53,1.57,1.3,2.65,2.3,3.25c0.4,0.27,0.78,0.52,1.15,0.75c0.37,0.23,0.7,0.52,1,0.85c0.3,0.33,0.55,0.75,0.75,1.25
		s0.3,1.15,0.3,1.95c0,1.13-0.25,2.2-0.75,3.2s-1.15,1.88-1.95,2.65c-0.8,0.77-1.73,1.37-2.8,1.8c-1.07,0.43-2.13,0.65-3.2,0.65
		c-2.67,0-4.98-0.73-6.95-2.2c-1.97-1.47-3.58-3.52-4.85-6.15c-1.27-2.63-2.2-5.77-2.8-9.4c-0.6-3.63-0.83-7.62-0.7-11.95
		c-1-0.13-2.02-0.28-3.05-0.45c-1.03-0.17-1.97-0.47-2.8-0.9c-0.83-0.43-1.54-1.05-2.1-1.85c-0.57-0.8-0.85-1.87-0.85-3.2
		c0-1.27,0.27-2.3,0.8-3.1c0.53-0.8,1.23-1.45,2.1-1.95c0.87-0.5,1.78-0.9,2.75-1.2C368.24,92.45,369.19,92.17,370.13,91.9z"/>
	<path class="st2" d="M423.83,100.1c2,0.6,3.9,1.28,5.7,2.05c1.8,0.77,3.38,1.77,4.75,3c1.37,1.23,2.43,2.77,3.2,4.6
		c0.77,1.83,1.15,4.12,1.15,6.85c0,3.53-0.63,6.4-1.9,8.6c-1.27,2.2-2.92,3.9-4.95,5.1c-2.03,1.2-4.33,2.02-6.9,2.45
		c-2.57,0.43-5.18,0.65-7.85,0.65c-1.53,0-3.05-0.12-4.55-0.35c-1.5-0.23-2.85-0.67-4.05-1.3c-1.2-0.63-2.17-1.52-2.9-2.65
		c-0.73-1.13-1.1-2.6-1.1-4.4c0-1.6,0.48-2.9,1.45-3.9c0.96-1,2.17-1.78,3.6-2.35c1.43-0.57,3-1.02,4.7-1.35
		c1.7-0.33,3.27-0.62,4.7-0.85c1.43-0.23,2.63-0.52,3.6-0.85c0.97-0.33,1.45-0.8,1.45-1.4c0-0.67-0.43-1.2-1.3-1.6
		c-0.87-0.4-1.93-0.8-3.2-1.2c-1.27-0.4-2.67-0.87-4.2-1.4c-1.53-0.53-2.93-1.28-4.2-2.25c-1.27-0.97-2.33-2.22-3.2-3.75
		c-0.87-1.53-1.3-3.53-1.3-6c0-2.27,0.47-4.48,1.4-6.65c0.93-2.17,2.2-4.12,3.8-5.85c1.6-1.73,3.45-3.13,5.55-4.2
		c2.1-1.07,4.32-1.6,6.65-1.6c1.4,0,2.93,0.08,4.6,0.25c1.67,0.17,3.22,0.55,4.65,1.15c1.43,0.6,2.62,1.47,3.55,2.6
		c0.93,1.13,1.4,2.67,1.4,4.6c0,2.13-0.45,3.68-1.35,4.65c-0.9,0.97-2,1.58-3.3,1.85c-1.3,0.27-2.72,0.33-4.25,0.2
		c-1.53-0.13-2.93-0.2-4.2-0.2c-1.4,0-2.5,0.22-3.3,0.65c-0.8,0.43-1.25,0.95-1.35,1.55c-0.1,0.6,0.13,1.2,0.7,1.8
		C421.64,99.2,422.56,99.7,423.83,100.1z"/>
</g>
<g id="Livello_1">
	<path class="st3" d="M31.24,119.6c0.07,1.8,0.35,3.25,0.85,4.35c0.5,1.1,1.03,2.05,1.6,2.85c0.57,0.8,1.08,1.57,1.55,2.3
		c0.47,0.73,0.7,1.6,0.7,2.6c0,1.67-0.57,3.07-1.7,4.2c-1.13,1.13-2.43,1.7-3.9,1.7c-2.4,0-4.53-0.93-6.4-2.8
		c-1.87-1.87-3.47-4.28-4.8-7.25c-1.33-2.97-2.45-6.28-3.35-9.95c-0.9-3.67-1.62-7.27-2.15-10.8c-0.53-3.53-0.92-6.82-1.15-9.85
		c-0.23-3.03-0.35-5.42-0.35-7.15c0-1.27,0.05-2.88,0.15-4.85c0.1-1.97,0.28-4.07,0.55-6.3c0.27-2.23,0.67-4.45,1.2-6.65
		c0.53-2.2,1.23-4.2,2.1-6c0.87-1.8,1.92-3.25,3.15-4.35c1.23-1.1,2.75-1.65,4.55-1.65c1.53,0,2.8,0.23,3.8,0.7
		c1,0.47,1.82,1.12,2.45,1.95c0.63,0.83,1.1,1.82,1.4,2.95c0.3,1.13,0.52,2.33,0.65,3.6c1.4-1.13,2.78-2.23,4.15-3.3
		c1.37-1.07,2.8-2.02,4.3-2.85c1.5-0.83,3.08-1.5,4.75-2c1.67-0.5,3.43-0.75,5.3-0.75c2.73,0,5.12,0.57,7.15,1.7
		c2.03,1.13,3.7,2.63,5,4.5c1.3,1.87,2.27,3.98,2.9,6.35c0.63,2.37,0.95,4.78,0.95,7.25c0,4.33-1.02,8.77-3.05,13.3
		c-2.03,4.53-4.7,8.68-8,12.45c-3.3,3.77-7.08,6.92-11.35,9.45C39.97,117.83,35.64,119.27,31.24,119.6z M31.44,105.2
		c1.47-0.8,3-1.8,4.6-3c1.6-1.2,3.15-2.57,4.65-4.1c1.5-1.53,2.88-3.17,4.15-4.9c1.27-1.73,2.37-3.53,3.3-5.4
		c1.67-3.27,2.45-5.93,2.35-8c-0.1-2.07-0.72-3.33-1.85-3.8c-1.13-0.47-2.63-0.05-4.5,1.25c-1.87,1.3-3.73,3.68-5.6,7.15
		c-0.93,1.73-1.78,3.55-2.55,5.45c-0.77,1.9-1.45,3.78-2.05,5.65c-0.6,1.87-1.12,3.63-1.55,5.3
		C31.95,102.47,31.64,103.94,31.44,105.2z"/>
	<path class="st3" d="M104.64,99.4c0,2.53-0.47,5.48-1.4,8.85c-0.93,3.37-2.27,6.57-4,9.6c-1.73,3.03-3.83,5.6-6.3,7.7
		c-2.47,2.1-5.23,3.15-8.3,3.15c-2.33,0-4.33-0.48-6-1.45c-1.67-0.97-3.1-2.25-4.3-3.85c-2-2.6-3.32-5.62-3.95-9.05
		c-0.63-3.43-0.8-6.9-0.5-10.4s1-6.92,2.1-10.25c1.1-3.33,2.38-6.2,3.85-8.6c1.6-2.6,3.62-4.55,6.05-5.85
		c2.43-1.3,4.92-1.95,7.45-1.95c2.53,0,4.93,0.67,7.2,2c2.27,1.33,4.1,3.37,5.5,6.1c1.07,2.13,1.77,4.43,2.1,6.9
		C104.47,94.77,104.64,97.14,104.64,99.4z M94.14,100.7c0-3.2-0.25-5.58-0.75-7.15c-0.5-1.57-1.13-2.52-1.9-2.85
		c-0.77-0.33-1.6-0.1-2.5,0.7c-0.9,0.8-1.73,1.93-2.5,3.4c-0.77,1.47-1.4,3.2-1.9,5.2s-0.75,4.07-0.75,6.2
		c0,3.07,0.25,5.28,0.75,6.65c0.5,1.37,1.13,2.12,1.9,2.25c0.77,0.13,1.6-0.23,2.5-1.1c0.9-0.87,1.73-2,2.5-3.4
		c0.77-1.4,1.4-2.98,1.9-4.75C93.89,104.08,94.14,102.37,94.14,100.7z"/>
	<path class="st3" d="M125.33,119.4c0.13,2.87,0.28,5.77,0.45,8.7c0.17,2.93,0.25,5.8,0.25,8.6c0,1.2-0.02,2.42-0.05,3.65
		c-0.03,1.23-0.23,2.35-0.6,3.35c-0.37,1-0.95,1.82-1.75,2.45c-0.8,0.63-1.97,0.95-3.5,0.95c-1.67,0-3.03-1.12-4.1-3.35
		c-1.07-2.23-1.93-5.08-2.6-8.55c-0.67-3.47-1.13-7.3-1.4-11.5c-0.27-4.2-0.45-8.23-0.55-12.1c-0.1-3.87-0.13-7.35-0.1-10.45
		c0.03-3.1,0.05-5.32,0.05-6.65c0-0.87-0.18-1.6-0.55-2.2c-0.37-0.6-0.75-1.2-1.15-1.8c-0.4-0.6-0.78-1.25-1.15-1.95
		c-0.37-0.7-0.55-1.62-0.55-2.75c0-1.93,0.62-3.65,1.85-5.15c1.23-1.5,2.75-2.78,4.55-3.85c1.8-1.07,3.73-1.87,5.8-2.4
		c2.07-0.53,3.9-0.8,5.5-0.8c2.87,0,5.65,0.52,8.35,1.55c2.7,1.03,5.08,2.45,7.15,4.25c2.07,1.8,3.72,3.95,4.95,6.45
		c1.23,2.5,1.85,5.25,1.85,8.25c0,3.73-0.7,6.85-2.1,9.35s-3.2,4.67-5.4,6.5c-2.2,1.83-4.63,3.47-7.3,4.9
		C130.57,116.29,127.93,117.8,125.33,119.4z M125.23,87.7c0,0.8-0.03,1.63-0.1,2.5c-0.07,0.87-0.12,1.85-0.15,2.95
		c-0.03,1.1-0.05,2.37-0.05,3.8c0,1.43,0.03,3.12,0.1,5.05c1.93,0,3.57-0.77,4.9-2.3c1.33-1.53,2-3.83,2-6.9
		c0-1.6-0.48-2.88-1.45-3.85c-0.97-0.97-2.22-1.45-3.75-1.45L125.23,87.7z"/>
	<path class="st3" d="M222.13,100.5c0.13-1.33,0.25-3.23,0.35-5.7c0.1-2.47,0.27-5.18,0.5-8.15c0.23-2.97,0.58-5.98,1.05-9.05
		c0.47-3.07,1.1-5.85,1.9-8.35c0.8-2.5,1.83-4.55,3.1-6.15c1.27-1.6,2.83-2.4,4.7-2.4c1.73,0,3.27,0.6,4.6,1.8c1.33,1.2,2,2.7,2,4.5
		c0,2.53-0.15,5.07-0.45,7.6c-0.3,2.53-0.68,5.07-1.15,7.6c-0.53,3.4-0.9,7.15-1.1,11.25c-0.2,4.1-0.38,8.2-0.55,12.3
		c-0.17,4.1-0.37,8-0.6,11.7c-0.23,3.7-0.62,6.82-1.15,9.35c-0.27,1.4-0.78,2.6-1.55,3.6c-0.77,1-1.92,1.5-3.45,1.5
		c-2.2,0-4.28-0.83-6.25-2.5c-1.97-1.67-3.87-3.78-5.7-6.35c-1.83-2.57-3.6-5.38-5.3-8.45c-1.7-3.07-3.3-6.05-4.8-8.95
		s-2.95-5.48-4.35-7.75c-1.4-2.27-2.7-3.87-3.9-4.8c-0.6,3.87-1.03,7.15-1.3,9.85c-0.27,2.7-0.53,5.27-0.8,7.7
		c-0.27,2.43-0.57,5-0.9,7.7c-0.33,2.7-0.87,5.95-1.6,9.75c-0.2,0.93-0.45,1.87-0.75,2.8c-0.3,0.93-0.7,1.77-1.2,2.5
		c-0.5,0.73-1.15,1.35-1.95,1.85c-0.8,0.5-1.73,0.75-2.8,0.75c-2.13,0-3.68-0.72-4.65-2.15c-0.97-1.43-1.45-3.08-1.45-4.95
		c0-6,0.13-11.43,0.4-16.3c0.27-4.87,0.57-9.63,0.9-14.3c0.33-4.67,0.7-9.42,1.1-14.25c0.4-4.83,0.7-10.22,0.9-16.15
		c0.07-2.47,0.75-4.57,2.05-6.3c1.3-1.73,3.25-2.6,5.85-2.6c1.53,0,3.17,0.3,4.9,0.9c0.8,0.33,1.85,1.42,3.15,3.25
		c1.3,1.83,2.7,4.07,4.2,6.7c1.5,2.63,3.07,5.5,4.7,8.6c1.63,3.1,3.18,6.1,4.65,9c1.47,2.9,2.78,5.52,3.95,7.85
		C220.55,97.64,221.47,99.37,222.13,100.5z"/>
	<path class="st3" d="M245.23,107.7c0-0.93,0-2.17,0-3.7c0-1.53,0.07-3.18,0.2-4.95c0.13-1.77,0.35-3.53,0.65-5.3
		c0.3-1.77,0.77-3.37,1.4-4.8c0.63-1.43,1.42-2.6,2.35-3.5c0.93-0.9,2.13-1.35,3.6-1.35c1.46,0,2.65,0.27,3.55,0.8
		c0.9,0.53,1.6,1.23,2.1,2.1c0.5,0.87,0.81,1.88,0.95,3.05c0.13,1.17,0.2,2.38,0.2,3.65c0,4.4-0.2,8.73-0.6,13
		c-0.4,4.27-0.6,8.6-0.6,13c0,1.73-0.5,3.28-1.5,4.65c-1,1.37-2.47,2.05-4.4,2.05c-1.87,0-3.32-0.73-4.35-2.2
		c-1.03-1.47-1.82-3.22-2.35-5.25c-0.53-2.03-0.87-4.1-1-6.2C245.3,110.65,245.23,108.97,245.23,107.7z"/>
	<path class="st3" d="M291.97,119.1c-1.13,0.33-2.28,0.68-3.44,1.05c-1.16,0.37-2.34,0.55-3.54,0.55c-2.99,0-5.62-0.82-7.88-2.45
		c-2.26-1.63-4.16-3.7-5.69-6.2c-1.53-2.5-2.68-5.2-3.44-8.1s-1.15-5.62-1.15-8.15c0-2.87,0.53-5.8,1.6-8.8
		c1.06-3,2.56-5.72,4.49-8.15c1.93-2.43,4.21-4.42,6.83-5.95c2.63-1.53,5.54-2.3,8.73-2.3c2.86,0,5.69,0.73,8.48,2.2
		c0.73-0.6,1.5-1.07,2.29-1.4c0.8-0.33,1.66-0.5,2.59-0.5c1.93,0,3.36,0.57,4.29,1.7c0.93,1.13,1.58,2.5,1.95,4.1
		c0.37,1.6,0.55,3.28,0.55,5.05c0,1.77,0,3.28,0,4.55c0,1.87-0.02,4.4-0.05,7.6c-0.03,3.2-0.13,6.7-0.3,10.5
		c-0.17,3.8-0.42,7.72-0.75,11.75c-0.33,4.03-0.78,7.85-1.35,11.45c-0.57,3.6-1.28,6.8-2.14,9.6c-0.87,2.8-1.93,4.87-3.19,6.2
		c-1.46,1.67-3.16,2.97-5.09,3.9c-1.93,0.93-3.99,1.4-6.19,1.4c-1.2,0-2.43-0.15-3.7-0.45c-1.27-0.3-2.43-0.75-3.5-1.35
		c-1.07-0.6-1.95-1.4-2.65-2.4s-1.05-2.2-1.05-3.6c0-1.47,0.27-2.58,0.8-3.35c0.53-0.77,1.22-1.37,2.05-1.8
		c0.83-0.43,1.73-0.78,2.7-1.05c0.97-0.27,1.92-0.65,2.85-1.15s1.75-1.2,2.45-2.1s1.18-2.22,1.45-3.95L291.97,119.1z M291.83,101.8
		c0.73-2.07,1.28-4.42,1.65-7.05c0.37-2.63,0.55-5.12,0.55-7.45c0-0.6-0.15-1.18-0.45-1.75c-0.3-0.57-0.68-1.05-1.15-1.45
		c-0.47-0.4-0.98-0.72-1.55-0.95c-0.57-0.23-1.08-0.35-1.55-0.35c-1.2,0-2.25,0.5-3.15,1.5c-0.9,1-1.62,2.2-2.15,3.6
		c-0.53,1.4-0.93,2.87-1.2,4.4c-0.27,1.53-0.4,2.83-0.4,3.9c0,2.13,0.3,4.15,0.9,6.05c0.6,1.9,1.37,3.3,2.3,4.2
		c0.93,0.9,1.95,1.07,3.05,0.5C289.78,106.39,290.83,104.67,291.83,101.8z"/>
	<path class="st3" d="M329.13,81.9c1.59-1,3.2-1.95,4.83-2.85c1.62-0.9,3.37-1.35,5.23-1.35c2.72,0,4.89,0.88,6.52,2.65
		c1.62,1.77,2.85,3.93,3.68,6.5c0.83,2.57,1.36,5.23,1.59,8c0.23,2.77,0.35,5.15,0.35,7.15c0,0.93,0.03,2.17,0.1,3.7
		c0.07,1.53,0.12,3.18,0.15,4.95c0.03,1.77,0,3.55-0.1,5.35c-0.1,1.8-0.32,3.4-0.65,4.8c-0.6,2.47-1.65,4.17-3.15,5.1
		c-1.5,0.93-3.32,1.4-5.45,1.4c-0.8,0-1.55-0.23-2.25-0.7c-0.7-0.47-1.3-1.1-1.8-1.9c-0.5-0.8-0.88-1.72-1.15-2.75
		c-0.27-1.03-0.33-2.12-0.2-3.25c0.2-2.47,0.38-4.92,0.55-7.35c0.17-2.43,0.28-4.82,0.35-7.15c0.07-5.6-0.32-9.28-1.15-11.05
		c-0.83-1.77-1.77-2.18-2.8-1.25c-1.03,0.93-1.93,2.95-2.7,6.05c-0.77,3.1-1.02,6.78-0.75,11.05c0.13,1.93,0.32,3.85,0.55,5.75
		c0.23,1.9,0.35,3.85,0.35,5.85c0,2.13-0.62,3.92-1.85,5.35c-1.23,1.43-2.92,2.15-5.05,2.15c-2,0-3.58-0.65-4.75-1.95
		c-1.17-1.3-1.92-2.88-2.25-4.75c-0.53-2.13-0.98-4.5-1.35-7.1c-0.37-2.6-0.65-5.3-0.85-8.1c-0.2-2.8-0.35-5.63-0.45-8.5
		c-0.1-2.87-0.15-5.63-0.15-8.3c0-1,0-2.55,0-4.65c0-2.1,0.07-4.43,0.2-7c0.13-2.57,0.37-5.18,0.71-7.85
		c0.33-2.67,0.82-5.1,1.46-7.3c0.64-2.2,1.46-4,2.47-5.4c1.01-1.4,2.25-2.1,3.73-2.1c1.61,0,2.87,0.5,3.77,1.5s1.58,2.32,2.01,3.95
		c0.43,1.63,0.7,3.45,0.8,5.45c0.1,2,0.1,4,0,6c-0.1,2-0.22,3.87-0.35,5.6C329.2,79.33,329.13,80.77,329.13,81.9z"/>
	<path class="st3" d="M366.13,85.9c0.2-1.13,0.43-2.58,0.7-4.35c0.27-1.77,0.6-3.63,1-5.6c0.4-1.97,0.87-3.97,1.4-6
		c0.53-2.03,1.2-3.85,2-5.45c0.8-1.6,1.75-2.92,2.85-3.95c1.1-1.03,2.42-1.55,3.95-1.55c1.53,0,2.75,0.18,3.65,0.55
		c0.9,0.37,1.6,0.88,2.1,1.55c0.5,0.67,0.83,1.48,1,2.45c0.17,0.97,0.25,2.05,0.25,3.25c0,2.87-0.08,6-0.25,9.4
		c-0.17,3.4-0.35,6.6-0.55,9.6c1.07,0.13,2.27,0.23,3.6,0.3c1.33,0.07,2.6,0.25,3.8,0.55c1.2,0.3,2.22,0.83,3.05,1.6
		c0.83,0.77,1.25,1.88,1.25,3.35c0,1.4-0.43,2.48-1.3,3.25c-0.87,0.77-1.93,1.32-3.2,1.65c-1.27,0.33-2.57,0.53-3.9,0.6
		c-1.33,0.07-2.47,0.13-3.4,0.2c-0.2,1.2-0.33,2.73-0.4,4.6c-0.07,1.87-0.02,3.75,0.15,5.65c0.17,1.9,0.52,3.63,1.05,5.2
		c0.53,1.57,1.3,2.65,2.3,3.25c0.4,0.27,0.78,0.52,1.15,0.75c0.37,0.23,0.7,0.52,1,0.85c0.3,0.33,0.55,0.75,0.75,1.25
		s0.3,1.15,0.3,1.95c0,1.13-0.25,2.2-0.75,3.2s-1.15,1.88-1.95,2.65c-0.8,0.77-1.73,1.37-2.8,1.8c-1.07,0.43-2.13,0.65-3.2,0.65
		c-2.67,0-4.98-0.73-6.95-2.2c-1.97-1.47-3.58-3.52-4.85-6.15c-1.27-2.63-2.2-5.77-2.8-9.4c-0.6-3.63-0.83-7.62-0.7-11.95
		c-1-0.13-2.02-0.28-3.05-0.45c-1.03-0.17-1.97-0.47-2.8-0.9c-0.83-0.43-1.54-1.05-2.1-1.85c-0.57-0.8-0.85-1.87-0.85-3.2
		c0-1.27,0.27-2.3,0.8-3.1c0.53-0.8,1.23-1.45,2.1-1.95c0.87-0.5,1.78-0.9,2.75-1.2C364.24,86.45,365.19,86.17,366.13,85.9z"/>
	<path class="st3" d="M419.83,94.1c2,0.6,3.9,1.28,5.7,2.05c1.8,0.77,3.38,1.77,4.75,3c1.37,1.23,2.43,2.77,3.2,4.6
		c0.77,1.83,1.15,4.12,1.15,6.85c0,3.53-0.63,6.4-1.9,8.6c-1.27,2.2-2.92,3.9-4.95,5.1c-2.03,1.2-4.33,2.02-6.9,2.45
		c-2.57,0.43-5.18,0.65-7.85,0.65c-1.53,0-3.05-0.12-4.55-0.35c-1.5-0.23-2.85-0.67-4.05-1.3c-1.2-0.63-2.17-1.52-2.9-2.65
		c-0.73-1.13-1.1-2.6-1.1-4.4c0-1.6,0.48-2.9,1.45-3.9c0.96-1,2.17-1.78,3.6-2.35c1.43-0.57,3-1.02,4.7-1.35
		c1.7-0.33,3.27-0.62,4.7-0.85c1.43-0.23,2.63-0.52,3.6-0.85c0.97-0.33,1.45-0.8,1.45-1.4c0-0.67-0.43-1.2-1.3-1.6
		c-0.87-0.4-1.93-0.8-3.2-1.2c-1.27-0.4-2.67-0.87-4.2-1.4c-1.53-0.53-2.93-1.28-4.2-2.25c-1.27-0.97-2.33-2.22-3.2-3.75
		c-0.87-1.53-1.3-3.53-1.3-6c0-2.27,0.47-4.48,1.4-6.65c0.93-2.17,2.2-4.12,3.8-5.85c1.6-1.73,3.45-3.13,5.55-4.2
		c2.1-1.07,4.32-1.6,6.65-1.6c1.4,0,2.93,0.08,4.6,0.25c1.67,0.17,3.22,0.55,4.65,1.15c1.43,0.6,2.62,1.47,3.55,2.6
		c0.93,1.13,1.4,2.67,1.4,4.6c0,2.13-0.45,3.68-1.35,4.65c-0.9,0.97-2,1.58-3.3,1.85c-1.3,0.27-2.72,0.33-4.25,0.2
		c-1.53-0.13-2.93-0.2-4.2-0.2c-1.4,0-2.5,0.22-3.3,0.65c-0.8,0.43-1.25,0.95-1.35,1.55c-0.1,0.6,0.13,1.2,0.7,1.8
		C417.64,93.2,418.56,93.7,419.83,94.1z"/>
	<path class="st2" d="M274.18,42.87c-13.69,0-24.79-11.1-24.79-24.79c0-5.92,2.08-11.36,5.54-15.62
		c-10.28,3.02-17.78,12.53-17.78,23.78c0,13.69,11.1,24.79,24.79,24.79c7.77,0,14.7-3.57,19.24-9.17
		C278.97,42.52,276.62,42.87,274.18,42.87z"/>
</g>
</svg>
